<?xml version="1.0" standalone="no"?>
<!DOCTYPE svg PUBLIC "-//W3C//DTD SVG 20010904//EN"
 "http://www.w3.org/TR/2001/REC-SVG-20010904/DTD/svg10.dtd">
<svg version="1.0" xmlns="http://www.w3.org/2000/svg"
 width="1079.000000pt" height="1079.000000pt" viewBox="0 0 1079.000000 1079.000000"
 preserveAspectRatio="xMidYMid meet">
<metadata>
Created by potrace 1.14, written by Peter Selinger 2001-2017
</metadata>
<g transform="translate(0.000000,1079.000000) scale(0.100000,-0.100000)"
fill="#000000" stroke="none">
<path d="M3175 10779 c-96 -8 -240 -18 -875 -59 -162 -11 -394 -26 -515 -34
-121 -9 -407 -27 -635 -41 -228 -14 -430 -27 -447 -30 -18 -3 -81 -6 -140 -5
-60 0 -171 -7 -248 -15 -77 -8 -179 -18 -227 -21 l-88 -6 0 -560 0 -561 133 7
c72 4 204 11 292 16 627 35 938 51 1270 65 576 24 1348 60 2035 96 107 5 308
14 445 19 138 5 345 14 460 20 116 6 334 15 485 20 151 5 453 18 670 29 1031
53 1395 70 2255 106 72 3 263 15 425 26 408 27 620 39 723 39 48 0 87 3 87 8
0 4 107 8 238 10 130 1 329 6 442 12 113 5 338 15 500 20 162 6 303 14 313 16
16 5 17 34 17 420 l0 414 -3757 -1 c-2067 -1 -3803 -6 -3858 -10z m5828 -886
c-7 -2 -21 -2 -30 0 -10 3 -4 5 12 5 17 0 24 -2 18 -5z"/>
<path d="M473 9293 c9 -2 23 -2 30 0 6 3 -1 5 -18 5 -16 0 -22 -2 -12 -5z"/>
<path d="M600 8642 c6 -13 14 -21 18 -18 3 4 -2 14 -12 24 -18 16 -18 16 -6
-6z"/>
<path d="M1060 8526 c0 -25 41 -37 63 -18 21 19 15 28 -10 14 -13 -8 -22 -7
-35 5 -17 15 -18 15 -18 -1z"/>
<path d="M1021 8484 c0 -11 3 -14 6 -6 3 7 2 16 -1 19 -3 4 -6 -2 -5 -13z"/>
<path d="M1130 8485 c7 -9 15 -13 17 -11 7 7 -7 26 -19 26 -6 0 -6 -6 2 -15z"/>
<path d="M559 8453 c17 -34 13 -40 -23 -38 -29 3 -33 1 -29 -16 3 -12 11 -18
19 -15 7 3 20 -1 28 -9 8 -8 23 -15 34 -15 18 0 19 3 10 33 -6 19 -19 44 -30
58 -17 21 -18 22 -9 2z"/>
<path d="M610 8443 c0 -6 5 -15 10 -18 6 -3 10 -14 10 -24 0 -10 12 -26 26
-35 l25 -17 -15 28 c-22 40 -56 80 -56 66z"/>
<path d="M680 8430 c0 -6 10 -24 22 -40 16 -23 29 -30 52 -29 31 2 31 2 -4 8
-27 5 -31 8 -17 13 22 9 79 -1 71 -13 -3 -5 0 -9 5 -9 6 0 11 16 11 35 0 24
-5 35 -14 35 -8 0 -23 3 -33 7 -17 6 -17 6 0 -14 23 -27 23 -28 -23 -29 -38
-1 -40 0 -25 16 22 24 19 30 -15 30 -16 0 -30 -5 -30 -10z m40 -10 c0 -5 -4
-10 -10 -10 -5 0 -10 5 -10 10 0 6 5 10 10 10 6 0 10 -4 10 -10z"/>
<path d="M918 8433 c7 -3 16 -2 19 1 4 3 -2 6 -13 5 -11 0 -14 -3 -6 -6z"/>
<path d="M1101 8419 c-2 -44 22 -53 138 -57 58 -2 103 -1 100 2 -3 3 -30 7
-59 7 l-53 2 24 18 c23 17 23 19 4 19 -11 0 -27 -9 -35 -20 -8 -11 -21 -20
-30 -20 -13 0 -13 1 0 10 13 8 12 10 -2 10 -10 0 -27 9 -38 20 -25 25 -30 25
-31 -2 -1 -19 -3 -17 -9 7 -7 29 -8 29 -9 4z"/>
<path d="M1608 8433 c6 -2 18 -2 25 0 6 3 1 5 -13 5 -14 0 -19 -2 -12 -5z"/>
<path d="M850 8410 c0 -11 7 -20 15 -20 13 0 14 4 5 20 -6 11 -13 20 -15 20
-3 0 -5 -9 -5 -20z"/>
<path d="M1213 8423 c9 -2 23 -2 30 0 6 3 -1 5 -18 5 -16 0 -22 -2 -12 -5z"/>
<path d="M1290 8395 c0 -9 5 -15 11 -13 6 2 11 8 11 13 0 5 -5 11 -11 13 -6 2
-11 -4 -11 -13z"/>
<path d="M927 8383 c-9 -2 -15 -9 -12 -14 10 -15 32 -10 32 6 0 8 -1 14 -1 14
-1 -1 -9 -3 -19 -6z"/>
<path d="M858 8373 c7 -3 16 -2 19 1 4 3 -2 6 -13 5 -11 0 -14 -3 -6 -6z"/>
<path d="M475 8261 c-3 -5 -1 -12 5 -16 5 -3 10 1 10 9 0 18 -6 21 -15 7z"/>
<path d="M340 8256 c0 -2 7 -6 15 -10 8 -3 15 -1 15 4 0 6 -7 10 -15 10 -8 0
-15 -2 -15 -4z"/>
<path d="M400 8241 c0 -11 -9 -22 -20 -26 -21 -7 -60 10 -60 25 0 18 -29 10
-40 -10 -12 -23 -52 -27 -72 -7 -18 18 -48 28 -48 17 0 -6 6 -10 13 -10 24 0
-18 -20 -43 -20 -14 0 -20 -4 -15 -8 16 -11 16 -32 1 -32 -7 0 -19 -7 -26 -15
-12 -14 9 -15 193 -13 219 3 264 -6 84 -16 -60 -3 -119 -9 -131 -12 -12 -3
-32 -1 -45 4 -15 5 -43 4 -75 -3 l-51 -11 -26 -67 c-14 -37 -28 -70 -32 -73
-23 -24 -2 -31 95 -32 151 -3 286 -14 263 -22 -11 -4 -98 -7 -192 -6 -171 1
-173 1 -173 -21 0 -12 5 -23 11 -25 9 -3 9 -17 0 -56 -7 -37 -11 -268 -11
-740 l0 -687 22 -10 c32 -15 33 -33 4 -46 l-26 -12 0 -1049 c0 -576 1 -1048 3
-1049 1 0 53 -3 115 -5 97 -5 116 -3 132 11 13 12 37 17 82 18 60 0 88 12 88
36 0 13 73 33 114 30 58 -4 86 1 83 14 -1 8 12 13 38 14 22 2 94 8 160 14 103
11 122 16 141 36 12 13 28 23 37 23 9 0 20 6 24 14 12 20 48 36 82 36 16 0 33
5 37 11 5 8 30 10 83 5 102 -10 146 -8 206 9 77 21 193 29 210 15 12 -10 22
-9 47 3 18 8 71 19 116 23 56 4 85 11 89 20 3 8 14 14 24 14 11 0 22 7 26 15
5 16 63 51 63 39 0 -3 11 1 25 10 13 9 36 16 49 16 14 0 49 9 78 21 49 19 100
31 200 46 24 3 38 10 38 20 0 8 4 12 9 9 4 -3 23 -1 41 4 19 5 39 6 49 1 23
-13 71 -2 71 16 0 11 11 14 45 12 30 -2 50 2 63 14 22 21 58 22 65 3 4 -10 18
-12 49 -9 24 3 71 -2 104 -10 32 -8 93 -18 135 -22 l75 -7 35 36 c19 20 36 46
39 59 3 12 20 31 38 42 38 25 39 31 5 39 -14 4 -45 20 -67 35 -63 43 -73 44
-112 15 -26 -20 -42 -25 -66 -21 -44 7 -175 42 -215 58 -27 11 -44 10 -105 -4
-131 -30 -232 -49 -301 -57 -38 -4 -73 -12 -80 -19 -6 -6 -27 -11 -46 -11 -43
0 -226 -35 -267 -50 -16 -7 -72 -20 -125 -30 -53 -11 -123 -33 -157 -50 -59
-29 -243 -80 -291 -80 -26 0 -66 10 -187 46 -44 14 -97 27 -117 31 -32 5 -37
3 -37 -13 0 -26 -32 -44 -91 -51 -57 -7 -64 -25 -19 -51 43 -25 38 -42 -12
-42 -24 0 -61 -7 -83 -14 -43 -15 -61 -10 -95 24 -10 10 -36 22 -57 26 -46 9
-99 39 -84 48 6 4 11 24 11 45 0 36 2 39 34 45 18 4 41 15 51 26 10 11 30 20
44 20 14 0 42 5 62 10 30 8 38 16 43 41 8 42 8 49 -3 49 -5 0 -13 -9 -16 -20
-5 -16 -15 -20 -54 -20 -45 0 -49 2 -62 33 -7 17 -17 35 -23 39 -14 9 1 13 99
28 97 14 84 14 175 8 45 -3 59 -3 35 2 -30 5 -34 8 -15 9 l25 3 -25 8 c-14 4
-19 8 -12 9 6 1 12 8 12 16 0 20 38 34 73 28 33 -6 39 -43 7 -43 -11 0 -20 -5
-20 -11 0 -8 16 -9 53 -5 120 16 139 18 162 12 17 -4 25 -13 25 -29 1 -28 29
-64 55 -69 12 -2 21 -13 23 -26 4 -27 -15 -28 -73 -5 -22 8 -60 18 -85 22 -40
5 -45 9 -42 30 1 16 -4 24 -18 28 -11 3 -17 9 -15 13 7 12 -56 -7 -69 -20 -5
-5 -30 -9 -55 -8 l-46 1 45 7 c44 7 45 7 8 8 -41 2 -68 -6 -68 -19 0 -5 31 -9
69 -9 47 0 72 -4 80 -14 10 -12 1 -15 -56 -18 -37 -2 -71 1 -74 6 -4 4 -9 3
-13 -3 -12 -19 18 -51 54 -57 19 -4 48 -13 65 -22 43 -22 260 -12 307 14 18
11 35 21 38 24 3 3 52 5 110 6 158 1 180 4 180 19 0 18 -21 24 -42 11 -11 -7
-24 -7 -41 1 -18 9 -27 9 -36 0 -19 -19 -34 8 -39 70 -6 79 -12 85 -69 68 -45
-14 -46 -13 -72 13 -14 15 -35 40 -46 56 -19 27 -23 28 -55 18 -19 -6 -88 -14
-152 -18 l-117 -7 -7 27 c-9 35 0 54 32 67 15 5 33 17 39 26 12 17 25 16 183
-7 96 -15 132 -6 132 33 0 20 -5 23 -37 24 -38 1 -63 22 -63 54 0 9 -7 19 -15
23 -24 9 -17 30 14 48 27 15 31 15 43 1 7 -9 12 -26 12 -40 -1 -16 0 -17 3 -4
3 15 17 20 66 26 78 8 83 12 56 41 -19 20 -21 27 -11 49 15 33 50 33 58 1 3
-13 1 -33 -5 -44 -16 -30 -14 -33 16 -21 18 7 42 7 76 -1 27 -5 53 -7 59 -4 6
4 17 -1 24 -10 7 -10 17 -15 23 -11 19 11 12 51 -14 73 -14 12 -25 30 -25 39
0 26 16 47 29 38 7 -4 17 -2 24 3 7 6 31 7 62 2 72 -12 75 -12 75 8 0 26 -11
34 -27 21 -10 -9 -13 -8 -13 5 0 10 -4 15 -10 11 -5 -3 -31 -6 -57 -6 -28 -1
-55 -8 -65 -16 -11 -10 -29 -14 -48 -11 -17 3 -33 1 -36 -4 -8 -13 -142 -9
-178 6 -29 12 -36 12 -49 -1 -9 -9 -20 -12 -28 -8 -7 5 -25 9 -41 10 -32 3
-53 -23 -43 -55 7 -21 -6 -33 -29 -24 -21 8 -21 53 0 82 13 18 13 28 3 60 -6
20 -15 45 -20 54 -15 30 -10 48 14 48 20 0 24 -8 34 -61 6 -33 13 -62 15 -64
8 -8 200 14 213 25 10 8 19 8 34 1 11 -6 45 -11 75 -11 31 0 56 -3 56 -7 0 -7
47 -9 73 -5 4 1 0 13 -9 27 -24 37 -10 46 71 43 71 -1 73 -2 65 -23 -5 -14 -4
-27 1 -32 6 -6 12 -19 13 -29 2 -10 17 -22 35 -29 43 -14 51 -29 51 -101 0
-83 -6 -89 -112 -111 -21 -4 -28 -11 -28 -29 0 -20 5 -24 28 -24 16 0 42 -11
58 -25 23 -20 40 -25 79 -25 99 1 192 17 214 36 72 64 68 58 46 62 -68 9 -135
26 -135 33 0 5 8 9 18 9 10 0 22 4 28 10 5 5 59 11 119 14 61 2 129 8 152 11
36 6 43 4 53 -15 17 -32 -2 -139 -20 -110 -5 8 -10 3 -14 -14 -5 -20 -14 -27
-44 -31 -20 -4 -59 -12 -87 -18 -46 -11 -50 -14 -53 -44 -3 -31 -2 -33 30 -33
52 0 75 -30 38 -50 -28 -15 -270 -32 -285 -20 -6 5 -10 23 -7 40 5 37 -5 39
-18 5 -5 -14 -16 -25 -24 -23 -8 2 -15 -1 -15 -7 -1 -5 5 -10 12 -10 36 0 35
-50 -2 -69 -27 -15 -28 -17 -18 -56 6 -22 16 -40 22 -40 5 0 42 9 80 20 39 11
87 20 108 20 49 0 157 29 180 49 14 12 17 23 12 52 -4 21 -3 58 0 83 7 43 9
46 44 51 67 11 136 29 148 38 18 13 53 -2 53 -23 0 -14 -9 -20 -37 -22 l-38
-3 -3 -57 -3 -58 48 -2 c108 -4 121 -5 130 -11 5 -3 36 2 69 12 32 10 88 22
124 26 36 3 79 10 95 15 17 5 55 12 85 15 61 7 100 27 100 51 0 14 -2 14 -16
-1 -19 -19 -34 -16 -48 10 -6 11 -18 25 -26 31 -24 20 -3 28 24 10 30 -19 50
-20 64 -3 17 20 1 34 -48 44 -35 7 -45 13 -45 28 0 17 6 20 43 17 38 -2 42 0
42 22 0 13 -6 28 -12 34 -19 15 -70 17 -95 4 -41 -23 -103 24 -103 77 0 25 8
26 39 4 18 -12 22 -13 19 -2 -3 8 4 24 15 37 26 28 11 51 -20 31 -13 -8 -30
-9 -49 -4 -42 13 -49 12 -49 -5 0 -25 -30 -23 -32 2 -1 12 -11 34 -23 49 -22
31 -25 55 -10 79 8 13 44 15 225 15 209 0 217 -1 233 -21 9 -12 27 -25 40 -29
12 -3 22 -13 22 -21 0 -8 9 -14 20 -14 23 0 27 -25 5 -34 -41 -15 10 -56 71
-56 18 0 45 5 59 10 42 16 148 -19 191 -64 33 -34 37 -35 93 -32 85 6 143 45
156 106 5 22 18 38 41 52 39 23 44 33 12 25 -12 -4 -27 -2 -32 3 -7 5 -22 -1
-39 -16 -23 -19 -26 -27 -17 -43 16 -30 12 -51 -9 -51 -14 0 -22 10 -27 32 -3
18 -14 39 -23 46 -12 10 -13 14 -3 19 18 7 -4 33 -29 33 -20 0 -25 15 -9 25
17 10 11 20 -20 34 -36 16 -84 7 -76 -14 3 -9 0 -12 -8 -9 -8 3 -24 -7 -36
-23 -21 -26 -33 -31 -88 -34 -24 -2 -62 26 -62 46 0 24 21 34 52 23 19 -7 33
-7 37 -1 3 5 14 13 25 16 16 7 18 14 12 69 -4 34 -10 66 -12 70 -10 16 -164 3
-164 -14 0 -12 14 -16 92 -23 38 -4 68 -10 68 -14 0 -5 -30 -9 -67 -9 -37 -1
-79 -4 -93 -7 -15 -3 -38 -2 -51 4 -16 6 -31 5 -42 -1 -12 -6 -29 -5 -52 2
-37 12 -195 18 -211 7 -6 -3 -39 -7 -75 -8 -35 -1 -108 -8 -162 -15 -54 -8
-102 -12 -107 -9 -22 13 -8 26 28 25 52 -1 142 6 247 20 50 7 128 13 175 14
84 2 85 3 88 29 3 24 7 26 30 21 l27 -7 -24 26 c-18 20 -28 24 -37 16 -7 -6
-28 -9 -46 -7 -26 2 -34 8 -36 27 -4 23 -3 23 52 17 66 -9 96 4 96 39 0 23 -3
25 -51 25 -40 0 -50 3 -46 14 3 8 -1 20 -9 27 -31 25 6 109 48 109 10 0 17 -3
17 -7 -3 -21 2 -33 15 -33 8 0 16 4 18 8 2 4 19 17 38 28 l35 20 35 -38 c32
-35 39 -37 92 -38 48 0 61 -4 87 -27 37 -35 51 -80 26 -89 -29 -12 6 -24 48
-17 42 6 45 1 22 -54 -8 -19 -15 -37 -15 -39 0 -2 19 -4 43 -5 23 0 36 -3 29
-6 -6 -2 -12 -12 -12 -20 0 -12 8 -14 38 -9 20 3 58 7 85 8 44 1 50 -2 82 -40
19 -22 35 -46 35 -54 0 -17 28 -58 40 -58 10 0 40 52 40 70 0 5 -7 10 -15 10
-8 0 -38 25 -68 55 -29 30 -59 55 -65 55 -7 0 -12 5 -12 11 0 13 -42 1 -52
-15 -5 -7 -8 -6 -8 3 0 8 -10 25 -22 38 l-21 23 28 24 28 24 34 -21 c21 -14
32 -29 31 -41 -2 -11 3 -21 10 -23 6 -3 12 3 12 13 0 17 1 17 13 -1 8 -10 18
-15 24 -12 5 3 32 -19 58 -50 l49 -56 28 34 c15 18 28 30 28 25 0 -10 22 13
44 47 25 37 37 34 33 -7 -1 -19 -4 -32 -6 -30 -2 2 -12 -8 -21 -24 -12 -18
-14 -31 -7 -39 6 -9 6 -13 -1 -13 -6 0 -9 -7 -5 -16 4 -10 -1 -17 -16 -21 -26
-7 -26 -12 -4 -28 16 -12 13 -14 -22 -21 -31 -6 -53 -21 -107 -79 -114 -121
-114 -121 -95 -161 9 -19 23 -34 30 -34 17 0 55 -40 39 -41 -87 -5 -116 -1
-123 17 -14 36 -10 -11 5 -53 16 -45 49 -82 106 -118 21 -13 41 -29 45 -35 3
-5 23 -10 43 -10 26 0 42 -6 52 -20 8 -11 22 -20 32 -20 9 0 20 -4 23 -10 9
-15 35 -12 35 5 0 8 6 12 15 9 18 -7 85 14 85 27 0 5 12 9 26 9 14 0 35 5 47
12 27 14 87 78 87 92 0 23 -61 201 -73 212 -12 12 -8 42 6 47 9 3 8 11 -3 33
-12 23 -26 31 -63 38 -26 4 -47 13 -47 18 0 6 7 7 18 3 49 -22 109 -13 72 10
-18 11 -10 25 14 25 35 0 56 10 56 27 0 13 3 13 24 -1 17 -10 27 -12 31 -5 4
6 13 8 21 5 9 -3 11 0 7 11 -5 13 -3 14 18 3 13 -7 34 -21 45 -32 12 -10 25
-18 30 -16 5 1 30 -6 55 -16 46 -18 48 -17 93 3 45 20 86 50 69 52 -4 0 6 5
22 11 46 15 218 19 228 5 9 -13 7 -1 -9 38 -8 19 -7 19 10 3 9 -10 26 -18 36
-18 10 0 25 -6 32 -13 20 -19 66 -47 78 -47 15 0 12 20 -2 20 -7 0 -40 21 -73
46 -58 45 -59 46 -25 39 19 -4 40 -11 45 -15 6 -4 27 -7 48 -7 43 -1 58 -10
38 -22 -10 -7 -8 -11 10 -16 39 -13 47 -28 54 -106 6 -69 9 -76 41 -99 18 -14
34 -33 34 -42 0 -11 8 -18 19 -18 11 0 23 -5 26 -10 4 -6 11 -8 16 -4 5 3 7
10 4 15 -4 5 -1 9 4 9 6 0 11 -13 11 -28 0 -15 5 -33 12 -40 16 -16 1 -29 -20
-15 -21 13 -42 1 -61 -34 -9 -18 -20 -23 -51 -23 -22 0 -40 -4 -40 -10 0 -5
19 -10 42 -10 l41 0 -41 -41 c-47 -45 -49 -49 -26 -49 14 0 15 -2 3 -17 -13
-15 -14 -15 -17 0 -6 32 -32 19 -31 -15 0 -18 3 -27 6 -20 2 6 9 12 14 12 12
0 11 -38 -1 -42 -6 -2 -13 -55 -17 -121 -5 -105 -4 -117 10 -117 13 0 17 9 17
40 0 22 5 40 10 40 6 0 10 -18 10 -40 0 -22 5 -40 10 -40 6 0 10 -33 10 -80
l0 -80 -60 0 -60 0 0 40 0 40 -40 0 -40 0 0 -55 0 -55 -89 0 c-82 0 -91 -2
-108 -24 -17 -21 -25 -23 -71 -18 -43 4 -52 2 -52 -12 0 -18 -15 -22 -25 -6
-3 6 -17 10 -31 10 -13 0 -24 5 -24 10 0 6 35 11 83 12 69 1 75 2 37 8 l-45 6
45 5 c31 4 16 6 -46 7 -77 2 -93 -1 -108 -17 -9 -10 -14 -25 -11 -33 4 -10 -4
-23 -23 -36 -29 -21 -49 -73 -59 -159 -5 -41 -4 -43 21 -43 14 0 26 -5 26 -11
0 -7 7 -17 16 -24 9 -6 22 -28 29 -48 12 -36 12 -38 -16 -58 -16 -11 -29 -27
-29 -35 0 -8 -10 -14 -23 -14 -15 0 -29 -9 -36 -24 -11 -19 -23 -25 -67 -28
-35 -3 -65 -13 -84 -27 -21 -15 -51 -24 -93 -27 l-62 -6 -44 56 c-28 36 -51
56 -62 54 -9 -2 -33 14 -54 36 -31 33 -34 41 -21 48 18 10 21 28 5 28 -6 0
-17 7 -25 15 -24 23 -63 29 -82 12 -9 -8 -39 -19 -67 -25 -133 -27 -165 -36
-165 -43 0 -4 -20 -6 -44 -5 -35 3 -45 0 -49 -13 -3 -12 -27 -23 -73 -35 -80
-21 -79 -20 -120 -45 -17 -10 -50 -22 -75 -26 -35 -6 -40 -9 -24 -16 15 -6 16
-8 4 -8 -9 -1 -31 -4 -49 -8 -26 -5 -31 -3 -25 7 6 10 2 11 -16 7 -13 -3 -44
-9 -69 -13 -25 -4 -54 -11 -64 -17 -26 -13 -144 -18 -125 -5 28 19 -36 -4
-109 -39 -105 -51 -208 -131 -353 -274 -140 -139 -229 -246 -360 -435 -75
-109 -89 -135 -89 -169 0 -22 -16 -84 -35 -137 -79 -222 -141 -515 -161 -766
-4 -45 -9 -84 -13 -86 -3 -2 -33 1 -66 5 -113 17 -430 51 -548 60 -65 5 -127
14 -138 20 -11 6 -26 9 -32 6 -7 -2 -61 0 -122 5 -60 5 -117 10 -125 9 -15 0
-114 11 -255 29 -44 5 -129 14 -190 20 -216 19 -331 30 -400 40 -38 5 -98 12
-132 14 l-63 6 0 -1004 0 -1003 72 -12 c118 -18 343 -51 488 -71 74 -10 182
-26 240 -35 58 -9 170 -25 250 -35 262 -35 633 -90 637 -94 2 -2 -12 -36 -31
-75 l-36 -71 4585 0 4585 0 0 674 c0 731 3 686 -51 686 -14 0 -18 4 -13 13 6
8 3 8 -9 -1 -9 -8 -21 -10 -28 -7 -19 13 -79 24 -73 14 3 -5 -14 -9 -36 -9
-33 0 -41 3 -36 15 3 9 0 15 -10 15 -8 0 -12 -5 -9 -10 4 -6 -6 -10 -22 -10
-22 0 -25 2 -13 10 9 6 10 10 3 10 -6 0 -15 -5 -18 -10 -4 -6 -12 -7 -18 -3
-7 4 -20 6 -29 5 -10 -2 -18 0 -18 5 0 4 -30 7 -68 6 -37 0 -81 4 -99 10 -24
8 -35 8 -47 -2 -11 -9 -16 -10 -16 -2 0 6 -19 11 -46 11 -25 0 -54 5 -65 10
-12 7 -19 7 -19 1 0 -6 -14 -8 -32 -5 -18 2 -64 7 -101 9 -38 3 -74 8 -80 12
-7 4 -34 8 -62 9 -137 6 -341 23 -387 33 -20 5 -48 6 -62 4 -14 -3 -26 -4 -27
-2 -13 80 -42 439 -54 669 -21 429 -48 659 -87 759 -8 20 -11 22 -19 10 -6
-10 -9 -6 -9 16 0 17 -3 25 -8 18 -5 -8 -16 0 -32 25 -14 20 -27 39 -30 42
-15 15 -50 71 -50 80 0 6 -15 25 -32 43 -18 18 -42 52 -53 75 -11 23 -26 42
-32 42 -7 0 -13 3 -13 8 0 4 -10 12 -23 17 -12 6 -26 20 -32 33 -5 12 -16 20
-23 17 -7 -3 -11 -1 -7 4 7 12 -22 41 -41 41 -8 0 -14 4 -14 10 0 5 -11 12
-25 16 -14 3 -23 10 -20 14 3 4 -2 11 -11 14 -8 3 -14 14 -12 23 2 14 -4 18
-29 18 -35 1 -56 15 -34 23 9 3 -4 12 -30 21 -28 11 -51 28 -64 48 -11 18 -25
31 -32 28 -6 -2 -26 7 -44 21 -18 13 -38 24 -45 24 -6 0 -19 11 -28 25 -9 13
-30 32 -46 40 -17 9 -30 22 -30 29 0 8 -14 19 -30 25 -17 6 -34 21 -40 35 -5
15 -16 26 -25 26 -8 0 -15 7 -15 16 0 11 -6 14 -20 9 -13 -4 -22 -1 -26 10 -4
9 -20 23 -36 31 -26 13 -98 64 -136 95 -7 5 -27 16 -45 24 -29 12 -44 25 -115
99 -13 14 -30 22 -38 19 -8 -3 -14 0 -14 5 0 6 20 20 44 32 40 20 45 21 72 7
49 -25 101 -36 101 -22 0 7 -6 11 -13 8 -7 -2 -29 5 -51 16 -21 11 -31 20 -23
21 22 0 -14 21 -100 57 -95 40 -115 46 -285 84 -188 42 -239 53 -382 79 -115
21 -123 24 -123 46 0 12 4 25 9 28 4 3 7 21 6 40 -2 23 2 36 11 40 8 3 14 13
14 22 0 9 9 27 20 41 11 14 20 31 20 39 0 7 5 14 10 16 6 2 17 41 25 88 17 94
45 190 56 190 8 0 51 89 64 131 12 35 164 219 183 219 4 0 22 18 40 40 29 35
42 61 82 155 24 59 41 118 46 156 8 73 43 177 53 160 4 -6 12 -7 21 0 13 8 13
11 -2 20 -20 11 -23 31 -8 57 43 74 54 230 31 411 -9 66 -9 96 -2 100 7 5 0
33 -20 80 -22 53 -29 82 -25 105 4 18 1 47 -5 65 -10 28 -13 31 -21 17 -5 -9
-14 -14 -19 -10 -6 4 -6 11 2 20 6 8 8 15 3 15 -5 1 -15 2 -22 3 -19 2 -58 66
-40 67 7 1 20 3 28 4 8 1 23 3 33 4 9 0 17 8 17 16 0 11 -8 13 -33 8 -17 -3
-33 -10 -35 -15 -2 -4 -8 -8 -13 -8 -6 0 -6 7 -1 18 5 9 12 38 16 63 5 37 3
50 -10 64 -13 13 -19 14 -25 3 -6 -10 -15 -10 -39 -1 -16 6 -30 7 -30 2 0 -16
-17 -10 -24 9 -17 44 -49 87 -115 154 -39 40 -74 83 -77 95 -4 13 -10 20 -15
17 -5 -3 -9 2 -9 10 0 8 -10 18 -22 22 -35 10 -108 68 -103 81 2 6 -6 13 -18
15 -12 2 -21 9 -19 16 1 6 -4 12 -12 12 -7 0 -25 11 -41 25 -41 39 -51 25 -12
-18 19 -20 32 -37 28 -37 -4 0 -30 25 -57 55 -27 30 -52 55 -56 55 -16 0 -118
53 -113 58 6 6 -79 62 -94 62 -5 0 -17 7 -26 17 -9 9 -39 18 -66 21 -33 3 -49
9 -46 17 5 12 -27 14 -39 2 -4 -3 -14 -2 -24 3 -10 5 -29 5 -46 0 -16 -4 -23
-9 -16 -9 6 -1 12 -9 12 -18 0 -10 9 -33 20 -51 24 -38 24 -42 7 -42 -7 0 -45
31 -83 70 -67 68 -92 85 -80 55 10 -26 -1 -20 -81 45 -24 20 -36 11 -19 -15 9
-13 16 -27 16 -30 0 -11 -45 17 -77 48 -18 17 -33 27 -33 21 0 -5 -5 -2 -10 6
-7 12 -10 12 -10 1 0 -9 -8 -11 -25 -7 -28 7 -33 -5 -10 -24 21 -17 12 -24
-13 -11 -18 9 -19 8 -15 -12 l5 -22 -16 22 c-19 25 -95 73 -116 73 -9 0 -8 -4
4 -13 15 -11 16 -15 3 -25 -11 -10 -17 -9 -27 3 -7 8 -25 15 -41 15 -15 0 -31
5 -34 10 -12 19 -26 10 -20 -12 4 -15 3 -18 -3 -10 -7 10 -15 9 -41 -4 -22
-11 -62 -17 -127 -18 -76 -1 -94 -4 -94 -16 -1 -12 -3 -12 -14 3 -17 22 -26
22 -26 0 0 -15 -2 -14 -15 3 -9 12 -14 14 -13 5 2 -10 -7 -15 -30 -16 -18 0
-37 -7 -42 -15 -7 -12 -11 -12 -25 0 -13 11 -18 11 -24 1 -6 -10 -10 -9 -14 3
-9 22 -39 20 -60 -4 -10 -12 -22 -18 -27 -15 -6 3 -10 2 -10 -3 0 -5 -15 -9
-32 -9 -40 0 -150 -26 -198 -46 -19 -8 -41 -12 -48 -10 -6 3 -12 -3 -12 -12 0
-12 -6 -15 -19 -10 -11 3 -23 0 -28 -7 -10 -17 -104 -62 -163 -79 -25 -7 -50
-20 -56 -28 -10 -12 -13 -12 -23 5 -11 18 -12 18 -27 -3 -9 -13 -23 -23 -30
-23 -8 0 -22 -4 -32 -9 -38 -20 -155 -51 -195 -51 -31 0 -38 -3 -27 -10 12 -8
10 -10 -9 -10 -23 0 -77 -34 -114 -72 -10 -10 -28 -18 -40 -18 -37 0 -70 -21
-99 -61 -17 -24 -33 -36 -42 -33 -8 3 -16 -2 -19 -13 -4 -15 -5 -14 -6 4 -2
40 112 141 173 152 40 8 41 8 13 16 -18 5 -33 3 -40 -4 -6 -6 -19 -11 -29 -11
-10 0 -18 -4 -18 -10 0 -5 -5 -10 -11 -10 -6 0 -24 -9 -40 -21 -16 -11 -29
-18 -29 -14 0 18 -54 -35 -86 -86 -21 -32 -42 -59 -46 -59 -4 0 -8 -7 -8 -15
0 -9 -7 -18 -15 -21 -8 -4 -15 -17 -15 -30 0 -34 -16 -30 -24 7 -7 36 0 53 19
45 7 -2 16 2 19 10 8 22 7 26 -4 19 -5 -3 -10 -2 -10 3 0 5 -30 24 -67 42 -38
18 -71 37 -74 42 -8 13 -94 24 -86 12 3 -6 2 -16 -4 -24 -6 -11 -9 -11 -9 -2
0 7 -10 17 -22 22 -18 7 -19 9 -5 9 9 1 17 6 17 11 0 6 -14 4 -34 -4 -30 -13
-38 -12 -70 2 -25 12 -35 24 -36 40 0 15 -6 22 -20 22 -13 0 -20 -7 -20 -20 0
-11 -7 -20 -15 -20 -9 0 -15 9 -15 23 0 14 -3 18 -8 10 -6 -10 -15 -10 -43 0
-18 6 -37 16 -40 21 -9 12 -29 -2 -29 -20 0 -18 -10 -18 -39 2 -17 13 -28 14
-44 6 -39 -18 -52 -20 -65 -6 -7 8 -13 17 -15 21 -1 5 -6 8 -12 9 -40 2 -115
48 -115 71 0 7 -2 13 -4 13 -2 0 -26 4 -55 10 -55 10 -93 4 -69 -11 9 -6 7 -9
-9 -9 -13 0 -23 5 -23 10 0 6 -4 10 -10 10 -5 0 -7 -7 -4 -15 4 -10 0 -15 -12
-16 -14 -1 -13 -3 6 -9 22 -7 20 -8 -15 -9 -22 0 -47 4 -55 9 -10 6 -11 10 -2
10 6 0 12 5 12 10 0 6 -16 2 -36 -8 l-36 -18 -28 27 c-15 16 -35 26 -46 24
-10 -2 -27 -4 -37 -4 -22 -1 -34 -30 -17 -41 17 -10 4 -30 -21 -30 -10 0 -19
-7 -19 -15 0 -8 -7 -15 -15 -15 -8 0 -15 -4 -15 -10 0 -5 -6 -10 -14 -10 -15
0 -18 -10 -36 -130 -13 -80 -54 -252 -69 -285 -12 -28 -25 -64 -60 -180 -46
-153 -89 -286 -105 -330 -21 -55 -20 -65 7 -65 31 0 47 -18 47 -52 0 -16 9
-39 21 -51 19 -20 20 -30 15 -122 -7 -103 -4 -117 28 -128 14 -6 17 -14 12
-40 -5 -28 0 -39 40 -85 45 -52 45 -52 19 -52 -31 0 -85 35 -85 55 0 22 -19
28 -36 10 -9 -9 -21 -14 -28 -12 -18 6 -19 66 -1 93 l16 25 -136 -4 c-136 -4
-146 -7 -158 -42 -6 -17 -37 16 -37 39 0 27 -18 46 -36 39 -9 -3 -14 -20 -14
-44 0 -43 -6 -45 -57 -27 -24 9 -44 9 -73 1 -30 -7 -44 -7 -56 2 -19 14 -15
49 6 51 8 1 22 2 31 3 8 0 23 7 33 14 15 11 17 17 7 35 -18 34 -55 28 -87 -13
-14 -19 -31 -35 -38 -35 -18 1 -56 37 -56 54 0 9 -7 34 -17 57 -15 39 -15 42
0 51 28 15 19 28 -20 28 -21 1 -49 7 -63 15 l-25 14 35 1 c38 2 126 27 98 29
-24 1 -25 21 -11 161 7 69 15 172 18 230 9 192 16 281 25 304 6 16 5 27 -3 35
-9 9 -9 14 0 19 16 10 10 105 -6 110 -6 2 -16 -10 -22 -28 -7 -20 -16 -29 -25
-26 -8 3 -14 -1 -14 -8 0 -8 -3 -16 -7 -18 -11 -4 -41 -95 -49 -148 -12 -82
-48 -116 -39 -37 4 37 13 194 15 255 0 21 3 22 53 16 88 -10 97 0 96 104 0 48
-3 118 -8 156 -9 83 -30 106 -96 106 -37 0 -44 3 -53 28 -9 25 -24 174 -37
392 -4 52 -10 99 -14 103 -4 4 -19 4 -32 -1 -13 -5 -98 -7 -187 -4 -161 5
-164 5 -188 31 -24 26 -31 70 -18 119 6 21 11 22 93 22 60 -1 92 -5 105 -15
26 -20 57 -19 102 2 36 17 36 17 55 -6 28 -35 35 -18 9 23 -12 20 -17 36 -11
36 7 0 15 -10 20 -23 5 -13 17 -29 27 -37 16 -14 17 -13 10 10 -4 14 -8 47 -9
73 -1 39 -5 47 -18 44 -9 -2 -23 0 -32 5 -11 5 -24 5 -37 -2 -16 -9 -29 -6
-63 15 -45 25 -87 33 -87 15 0 -5 11 -10 25 -10 27 0 34 -14 11 -23 -22 -8
-60 4 -74 25 -14 19 -79 27 -67 8 4 -6 14 -9 22 -8 9 2 18 -3 20 -9 3 -9 -8
-13 -36 -13 -28 0 -41 4 -41 14 0 22 -25 26 -38 5 -17 -27 -78 -26 -87 1 -8
26 -25 26 -25 1 0 -29 -17 -35 -30 -11 -14 26 -26 25 -34 -2 -6 -22 -7 -22
-21 -4 -8 10 -12 24 -8 30 3 6 -6 -1 -21 -16 -32 -33 -45 -35 -79 -8 -14 11
-43 22 -66 24 -32 3 -41 0 -46 -15 -10 -31 -43 -33 -86 -5 -36 25 -39 25 -39
7z m-80 -41 c0 -5 -4 -10 -10 -10 -5 0 -10 5 -10 10 0 6 5 10 10 10 6 0 10 -4
10 -10z m687 -46 c-3 -3 -12 -4 -19 -1 -8 3 -5 6 6 6 11 1 17 -2 13 -5z m96
-1 c-7 -2 -19 -2 -25 0 -7 3 -2 5 12 5 14 0 19 -2 13 -5z m-433 -43 c0 -5 -2
-10 -4 -10 -3 0 -8 5 -11 10 -3 6 -1 10 4 10 6 0 11 -4 11 -10z m-438 -24 c10
-7 15 -15 12 -18 -2 -3 13 -2 36 2 46 8 50 5 43 -33 -3 -17 -11 -26 -21 -25
-8 2 -17 -2 -19 -9 -2 -6 6 -13 19 -16 13 -2 -13 -5 -58 -6 l-81 -1 20 60 c11
33 23 60 26 60 3 0 14 -7 23 -14z m374 -83 c-3 -22 -9 -29 -31 -31 -43 -5 -74
6 -71 25 2 12 13 18 39 19 21 0 40 4 44 7 14 14 22 6 19 -20z m-156 -93 c11
-8 7 -9 -15 -4 -37 8 -45 14 -19 14 10 0 26 -5 34 -10z m280 -77 c-1 -25 -19
-163 -26 -195 -4 -21 -11 -28 -30 -28 -13 0 -24 2 -24 4 0 15 33 177 41 204
11 34 39 45 39 15z m-502 -80 c59 -7 60 -9 37 -93 -8 -30 -18 -68 -20 -85 -3
-16 -6 -37 -8 -45 -5 -29 -17 -37 -67 -44 -27 -4 -50 -11 -50 -15 0 -13 -28
-21 -46 -14 -19 7 -17 30 15 187 22 109 34 130 65 121 12 -3 45 -8 74 -12z
m1115 6 c31 -8 37 -15 38 -37 0 -15 4 -67 8 -117 4 -49 4 -100 -1 -112 -12
-36 -83 -31 -273 19 -22 6 -74 13 -115 17 l-75 6 2 104 c1 60 7 109 14 117 9
11 49 14 188 14 97 0 193 -5 214 -11z m-783 -44 c0 -25 -33 -160 -42 -172 -5
-6 -23 -10 -41 -10 -27 2 -34 7 -43 37 -11 32 -34 54 -34 32 0 -6 5 -12 11
-14 7 -2 9 -15 5 -35 -5 -23 -12 -30 -23 -26 -25 10 -9 83 24 110 24 19 26 24
15 48 -20 43 -16 46 58 44 47 -1 70 -6 70 -14z m5956 -122 c19 -25 17 -35 -3
-24 -10 5 -29 14 -43 20 -23 10 -23 11 -2 7 12 -2 22 0 22 5 0 14 12 11 26 -8z
m-3816 -279 c0 -9 -7 -14 -17 -12 -25 5 -28 28 -4 28 12 0 21 -6 21 -16z
m4355 -34 c11 -17 -5 -11 -28 11 l-22 21 22 -11 c12 -6 25 -16 28 -21z m-2807
-23 c-29 -24 -55 -39 -57 -34 -2 6 9 21 25 34 16 13 34 28 39 33 6 5 18 9 28
10 11 0 -1 -16 -35 -43z m98 30 c-2 -18 -88 -109 -95 -101 -3 3 1 9 9 14 8 5
11 12 8 16 -4 3 -14 0 -22 -8 -11 -12 -12 -18 -3 -27 9 -9 0 -22 -38 -56 -28
-25 -60 -55 -72 -66 -19 -18 -23 -19 -23 -6 0 15 103 150 135 177 13 11 18 11
25 1 5 -9 10 -10 14 -2 4 6 2 11 -3 11 -23 0 -10 22 19 31 16 6 27 15 24 20
-3 5 1 9 10 9 8 0 13 -6 12 -13z m-1711 -18 c11 -16 1 -19 -13 -3 -7 8 -8 14
-3 14 5 0 13 -5 16 -11z m665 -39 c21 -6 22 -8 8 -14 -23 -10 -61 -4 -66 12
-4 13 19 14 58 2z m-87 -25 c-3 -9 -8 -14 -10 -11 -3 3 -2 9 2 15 9 16 15 13
8 -4z m932 -46 c-19 -21 -42 -47 -52 -57 -10 -11 -26 -29 -35 -40 -20 -25 -48
-29 -48 -8 0 20 46 87 85 122 25 23 41 30 60 27 l25 -5 -35 -39z m-1335 21 c0
-5 -4 -10 -10 -10 -5 0 -10 5 -10 10 0 6 5 10 10 10 6 0 10 -4 10 -10z m180
-10 c0 -5 -7 -10 -15 -10 -8 0 -15 5 -15 10 0 6 7 10 15 10 8 0 15 -4 15 -10z
m529 -145 c8 -9 -4 -14 -47 -21 -39 -6 -42 -5 -42 16 0 21 3 22 42 16 23 -4
44 -9 47 -11z m591 1 c0 -11 -19 -15 -25 -6 -3 5 1 10 9 10 9 0 16 -2 16 -4z
m-115 -27 c-10 -15 -25 -10 -19 6 4 8 10 12 15 9 5 -3 7 -10 4 -15z m-197 -54
c-11 -11 -37 7 -31 22 5 13 8 13 21 -1 9 -9 13 -18 10 -21z m262 15 c0 -5 -5
-10 -11 -10 -5 0 -7 5 -4 10 3 6 8 10 11 10 2 0 4 -4 4 -10z m-1100 -20 c0 -5
-9 -10 -19 -10 -11 0 -23 5 -26 10 -4 6 5 10 19 10 14 0 26 -4 26 -10z m480 4
c0 -9 -43 -44 -68 -54 -38 -16 -47 1 -11 18 19 9 40 22 47 29 14 13 32 17 32
7z m397 -36 c-3 -8 -6 -5 -6 6 -1 11 2 17 5 13 3 -3 4 -12 1 -19z m-2877 -208
c0 -12 -24 -12 -60 0 -21 7 -19 8 18 9 23 1 42 -3 42 -9z m1472 -2 c-9 -9 -15
-9 -24 0 -9 9 -7 12 12 12 19 0 21 -3 12 -12z m-992 -7 c0 -14 -18 -23 -30
-16 -6 4 -8 11 -5 16 8 12 35 12 35 0z m6170 -52 c0 -5 -4 -9 -10 -9 -5 0 -10
7 -10 16 0 8 5 12 10 9 6 -3 10 -10 10 -16z m-7172 -1 c19 -3 38 -11 43 -19 6
-11 15 -11 36 -4 17 7 68 8 128 4 55 -3 105 -2 110 2 6 4 56 4 110 -2 55 -5
123 -9 150 -8 28 1 123 -2 212 -6 125 -6 166 -5 178 5 12 10 16 9 21 -3 7 -20
-13 -57 -31 -57 -8 0 -15 -7 -15 -15 0 -8 -10 -21 -22 -29 -37 -24 -104 -23
-538 4 -91 5 -266 12 -390 16 -124 3 -237 9 -252 14 -20 6 -28 5 -32 -7 -4 -9
-1 -22 5 -29 6 -7 8 -17 5 -22 -3 -5 15 -21 39 -37 25 -15 45 -33 45 -38 0 -6
7 -19 17 -29 9 -10 13 -21 10 -24 -5 -5 -54 8 -109 31 -13 5 -18 2 -18 -9 0
-9 -7 -16 -15 -16 -8 0 -15 7 -15 15 0 8 5 15 10 15 16 0 12 27 -5 34 -8 3
-15 14 -15 25 0 11 -5 23 -11 27 -6 3 -8 17 -5 30 5 20 2 26 -19 34 -28 11
-29 16 -13 68 l11 37 171 -1 c94 0 186 -3 204 -6z m999 -4 c-3 -3 -12 -4 -19
-1 -8 3 -5 6 6 6 11 1 17 -2 13 -5z m2176 -104 c-22 -21 -24 -20 -17 7 4 14
11 20 20 16 12 -5 12 -8 -3 -23z m217 -30 c0 -11 -4 -20 -9 -20 -11 0 -22 26
-14 34 12 12 23 5 23 -14z m-160 3 c0 -5 -4 -15 -10 -23 -11 -18 -25 -7 -17
15 6 15 27 21 27 8z m96 -30 c-11 -11 -19 6 -11 24 8 17 8 17 12 0 3 -10 2
-21 -1 -24z m-175 -16 c-16 -16 -26 0 -10 19 9 11 15 12 17 4 2 -6 -1 -17 -7
-23z m-2338 -9 c12 -6 27 -18 34 -27 11 -14 12 -14 13 -1 0 11 6 9 19 -7 13
-15 30 -23 51 -23 30 0 31 -1 25 -32 -4 -18 -16 -41 -26 -50 -19 -19 -89 -25
-89 -9 0 6 -57 8 -141 5 -77 -3 -149 -2 -160 1 -14 5 -19 16 -19 46 0 39 0 39
40 39 35 0 40 3 40 24 0 24 0 24 178 45 7 0 23 -4 35 -11z m1677 -73 l35 -13
-65 -1 c-59 0 -63 1 -46 14 23 18 30 18 76 0z m940 -58 l0 -30 -23 21 c-13 12
-29 22 -36 22 -7 0 -3 9 10 19 30 24 49 11 49 -32z m-94 12 c3 -6 -1 -18 -9
-26 -14 -14 -20 -14 -49 -3 -70 28 -72 36 -8 38 33 1 62 -3 66 -9z m-2591 -96
c-11 -3 -23 -10 -27 -17 -6 -8 -10 -8 -15 0 -5 6 -15 14 -23 17 -8 3 8 5 35 5
28 0 41 -3 30 -5z m62 -9 c-3 -3 -12 -4 -19 -1 -8 3 -5 6 6 6 11 1 17 -2 13
-5z m-207 -14 c0 -5 -4 -10 -10 -10 -5 0 -10 5 -10 10 0 6 5 10 10 10 6 0 10
-4 10 -10z m70 0 c13 -9 13 -10 0 -9 -8 0 -24 4 -35 9 l-20 9 20 0 c11 0 27
-4 35 -9z m95 -10 c3 -5 1 -10 -4 -10 -6 0 -11 5 -11 10 0 6 2 10 4 10 3 0 8
-4 11 -10z m-815 -10 c8 -5 12 -11 9 -14 -3 -3 -14 1 -25 9 -21 16 -8 20 16 5z
m948 3 c-16 -2 -40 -2 -55 0 -16 2 -3 4 27 4 30 0 43 -2 28 -4z m-734 -27 c-3
-8 -14 -16 -25 -19 -10 -3 -19 -12 -19 -21 0 -13 -13 -16 -79 -16 -44 0 -82 4
-85 9 -3 5 20 14 52 20 31 7 71 18 87 26 41 18 76 19 69 1z m665 -15 c12 -8
12 -12 2 -25 -9 -10 -10 -20 -4 -28 5 -7 7 -44 4 -83 -3 -38 -2 -97 3 -129 8
-52 7 -60 -9 -72 -26 -19 -32 -18 -39 9 -8 30 -8 322 1 330 9 9 25 8 42 -2z
m111 0 c0 -5 -7 -11 -14 -14 -10 -4 -13 -1 -9 9 6 15 23 19 23 5z m-245 -212
l0 -204 -48 -26 c-31 -16 -58 -24 -77 -21 -33 5 -75 -20 -75 -45 0 -17 -6 -19
-100 -37 -11 -2 -46 -14 -78 -26 -57 -21 -114 -22 -142 -1 -18 15 -75 21 -100
11 -32 -12 -82 -2 -90 18 -9 23 1 27 68 27 l62 0 3 42 3 42 62 5 c34 3 145 8
247 11 102 3 189 10 194 15 5 5 14 6 21 4 7 -3 17 12 25 39 10 39 10 47 -6 65
-10 12 -21 19 -26 16 -4 -3 -8 -1 -8 5 0 5 6 14 14 18 9 6 11 15 5 30 -8 22
-8 22 -241 17 -128 -3 -244 -9 -258 -14 -21 -6 -26 -4 -27 10 -1 15 12 18 90
24 216 15 366 20 397 11 8 -2 26 4 40 14 21 17 23 22 12 46 l-12 26 -218 -6
c-119 -3 -238 -8 -264 -11 -41 -4 -48 -2 -48 13 0 16 12 18 103 21 385 9 437
14 437 41 0 21 10 33 24 28 7 -2 11 -73 11 -208z m2167 186 c6 -30 2 -35 -29
-35 -19 0 -23 5 -23 30 0 25 4 30 24 30 17 0 25 -7 28 -25z m-312 -10 c9 -11
33 -15 91 -15 43 0 81 -4 84 -10 3 -5 21 -10 38 -10 27 0 33 -4 35 -24 2 -33
-23 -54 -49 -38 -16 10 -25 9 -51 -4 -29 -15 -34 -15 -59 0 -15 9 -41 16 -58
16 -28 0 -31 3 -31 30 0 25 -4 30 -24 30 -27 0 -41 14 -31 30 9 15 41 12 55
-5z m945 -87 c27 -12 32 -23 13 -32 -7 -3 -4 -4 6 -3 10 1 21 -2 22 -8 2 -5
-7 -11 -21 -11 -14 -1 -25 2 -25 7 0 5 -9 9 -19 9 -23 0 -35 15 -27 35 7 18
17 19 51 3z m-961 -27 c-10 -10 -25 -16 -32 -13 -15 5 15 31 37 32 11 0 9 -5
-5 -19z m-145 -25 c15 -18 23 -69 13 -83 -5 -8 -48 -14 -115 -17 -105 -5 -108
-5 -117 18 -7 19 -14 22 -39 18 -24 -3 -31 -1 -31 12 0 21 26 32 44 17 19 -16
74 -2 94 24 14 19 27 23 79 23 38 0 66 -4 72 -12z m84 7 c-7 -2 -19 -2 -25 0
-7 3 -2 5 12 5 14 0 19 -2 13 -5z m1327 -62 c0 -21 -16 -2 -24 29 -7 24 -6 24
8 6 9 -11 16 -27 16 -35z m-1246 29 c35 -13 33 -39 -4 -53 -16 -6 -30 -15 -30
-20 0 -5 -9 -6 -20 -2 -10 3 -28 2 -38 -4 -16 -8 -21 -6 -29 12 -17 36 -1 61
43 68 21 3 42 7 46 8 4 0 18 -3 32 -9z m1282 -37 c-10 -10 -19 5 -10 18 6 11
8 11 12 0 2 -7 1 -15 -2 -18z m-2198 -75 l-3 -23 -13 23 c-11 19 -11 26 0 39
12 15 13 15 16 0 2 -9 2 -27 0 -39z m2176 17 c-20 -30 -24 -31 -24 -4 0 11 5
17 10 14 6 -3 10 -1 10 4 0 6 5 11 10 11 6 0 3 -11 -6 -25z m-3314 -5 c0 -13
-11 -13 -30 0 -12 8 -11 10 8 10 12 0 22 -4 22 -10z m1220 -91 c0 -16 -20 -49
-30 -49 -5 0 -16 8 -25 17 -16 16 -16 17 1 30 21 16 54 17 54 2z m497 -22 c34
-1 59 -6 56 -10 -3 -5 3 -26 13 -48 14 -28 24 -37 37 -33 21 7 22 0 1 -20 -20
-20 -44 -21 -44 -1 0 8 -3 15 -7 16 -5 0 -50 2 -102 5 -52 3 -102 9 -112 14
-10 6 -31 10 -48 10 -56 0 -31 37 44 67 17 7 46 10 65 7 19 -3 63 -7 97 -7z
m1670 -36 c-4 -15 1 -21 20 -23 14 -2 32 -15 41 -30 15 -26 15 -29 0 -44 -15
-15 -18 -15 -42 2 -16 12 -25 29 -26 45 0 15 -7 32 -15 39 -13 11 -13 15 -3
21 21 14 31 10 25 -10z m-2197 -37 c0 -21 -42 -35 -58 -20 -7 7 -10 19 -7 27
7 20 65 13 65 -7z m98 18 c9 -7 8 -13 -8 -27 -23 -21 -45 -9 -34 18 7 18 22
21 42 9z m-1960 -32 c10 0 27 -8 36 -19 16 -17 16 -19 -6 -24 -12 -4 -27 -2
-32 3 -6 6 -22 10 -37 10 -16 0 -29 7 -33 17 -8 21 13 34 35 22 10 -5 26 -9
37 -9z m3994 -5 c0 -5 -5 -11 -11 -13 -6 -2 -11 4 -11 13 0 9 5 15 11 13 6 -2
11 -8 11 -13z m-3875 -31 c-3 -3 -12 -4 -19 -1 -8 3 -5 6 6 6 11 1 17 -2 13
-5z m1708 -13 c7 -12 -12 -24 -25 -16 -11 7 -4 25 10 25 5 0 11 -4 15 -9z
m1752 -14 c10 -7 9 -12 -2 -23 -17 -18 -26 -18 -50 0 -16 12 -17 16 -6 29 12
16 34 13 58 -6z m-1407 -8 c0 -11 -4 -17 -10 -14 -5 3 -10 13 -10 21 0 8 5 14
10 14 6 0 10 -9 10 -21z m1890 11 c8 -5 11 -10 5 -10 -5 0 -17 5 -25 10 -8 5
-10 10 -5 10 6 0 17 -5 25 -10z m-3145 -32 c16 -81 17 -119 2 -142 -14 -21
-19 -22 -51 -12 -22 7 -32 14 -26 21 6 7 -19 17 -73 29 l-81 18 -18 -22 c-13
-17 -25 -21 -43 -16 -14 3 -36 9 -50 12 -16 4 -25 2 -25 -6 0 -16 -26 -40 -44
-40 -30 0 -95 34 -107 57 -14 26 -34 30 -46 9 -4 -7 -30 -30 -56 -50 -51 -39
-88 -49 -224 -61 -93 -9 -133 -1 -126 26 5 16 15 19 72 20 36 1 70 1 75 0 22
-4 33 21 28 68 -4 46 -3 49 22 55 15 4 30 5 34 3 4 -3 54 0 112 5 58 5 164 10
237 11 113 2 133 0 136 -14 3 -12 16 -15 68 -12 113 7 129 11 129 37 0 27 7
36 31 36 11 0 19 -11 24 -32z m1305 -5 c-1 -32 -35 -61 -76 -65 -30 -2 -39 1
-42 14 -4 22 41 41 81 35 28 -4 39 16 15 26 -8 3 -6 6 5 6 10 1 17 -6 17 -16z
m378 -12 c5 -36 -18 -80 -50 -97 -35 -18 -55 -13 -68 18 -6 13 -15 31 -22 40
-18 24 -7 30 32 15 27 -10 34 -10 38 1 6 20 45 53 57 49 5 -2 11 -14 13 -26z
m-818 -5 c0 -16 -18 -31 -27 -22 -8 8 5 36 17 36 5 0 10 -6 10 -14z m1815 -16
c3 -5 15 -10 26 -10 38 0 16 -44 -26 -52 -11 -1 -23 -12 -27 -23 -4 -14 -6
-10 -7 15 -1 62 16 99 34 70z m2958 -15 c-7 -21 -13 -19 -13 6 0 11 4 18 10
14 5 -3 7 -12 3 -20z m-5182 -9 c8 -17 8 -29 0 -45 -14 -25 -24 -26 -45 -5
-19 19 -20 28 -4 54 17 27 36 25 49 -4z m-217 -2 c7 -17 -18 -64 -33 -64 -4 0
-14 11 -21 25 -11 20 -11 27 0 40 16 20 46 19 54 -1z m5276 -43 c7 -22 10 -58
7 -80 -3 -24 -1 -44 5 -47 13 -8 3 -155 -12 -184 -6 -11 -22 -32 -36 -47 -14
-16 -32 -36 -41 -45 -16 -18 -94 -48 -124 -48 -9 0 -22 6 -29 14 -9 12 -8 15
7 14 64 -3 160 59 181 119 18 54 -11 123 -53 123 -8 0 -15 4 -15 9 0 5 -20 24
-44 42 -62 47 -79 114 -18 71 15 -11 40 -24 55 -27 23 -6 27 -4 27 14 0 12 7
24 15 27 8 4 15 12 15 19 0 7 7 18 15 25 9 7 14 19 11 27 -3 7 1 13 8 13 7 0
19 -18 26 -39z m-6401 20 c7 -5 9 -11 5 -14 -12 -7 -71 -11 -114 -7 -31 2 -28
4 25 15 33 7 62 13 65 14 3 0 11 -3 19 -8z m2662 -28 c7 -82 4 -92 -25 -99
-22 -5 -33 -2 -43 12 -7 10 -11 25 -8 32 3 8 5 19 5 26 0 20 69 48 71 29z
m3606 -35 c-3 -8 -6 -5 -6 6 -1 11 2 17 5 13 3 -3 4 -12 1 -19z m-4468 -14
c15 -11 19 -20 13 -26 -12 -12 -4 -40 15 -51 7 -4 13 -17 13 -27 0 -21 -15
-27 -25 -10 -3 6 -31 10 -61 10 -55 0 -64 6 -42 28 10 10 10 17 0 33 -11 18
-11 24 4 40 21 23 52 24 83 3z m4758 -6 c-3 -8 -6 -5 -6 6 -1 11 2 17 5 13 3
-3 4 -12 1 -19z m-6657 -18 c0 -9 -14 -14 -60 -22 -30 -6 -27 30 3 41 23 9 57
-2 57 -19z m983 -9 c6 -24 0 -31 -25 -31 -19 0 -22 8 -12 34 9 22 31 20 37 -3z
m5695 -10 c3 -8 -1 -12 -9 -9 -7 2 -15 10 -17 17 -3 8 1 12 9 9 7 -2 15 -10
17 -17z m-6778 -31 c0 -5 -6 -10 -14 -10 -8 0 -18 5 -21 10 -3 6 3 10 14 10
12 0 21 -4 21 -10z m4193 -18 c11 -12 18 -24 14 -28 -3 -4 -37 -7 -74 -8 -59
-1 -71 2 -90 22 -38 39 -30 45 53 40 59 -4 80 -10 97 -26z m-1730 -27 c4 -9
-1 -11 -14 -8 -10 3 -19 11 -19 19 0 16 26 8 33 -11z m1772 5 c3 -5 1 -10 -4
-10 -6 0 -11 5 -11 10 0 6 2 10 4 10 3 0 8 -4 11 -10z m1933 -12 c-2 -7 3 -12
10 -10 8 1 12 -15 12 -58 0 -46 -4 -61 -17 -68 -35 -18 -60 17 -32 45 8 8 5
14 -10 22 -27 15 -27 45 2 64 27 20 38 21 35 5z m-3405 -51 c69 -38 41 -72
-54 -65 -36 2 -45 7 -47 25 -2 12 -10 27 -18 33 -8 7 -14 19 -14 26 0 19 84 7
133 -19z m3663 -3 c0 -17 4 -36 8 -43 15 -23 -3 -59 -35 -70 -52 -18 -55 -16
-49 42 4 47 7 52 28 50 18 -2 22 2 22 28 0 40 25 33 26 -7z m-4148 -11 c-4
-20 -27 -27 -47 -14 -19 12 -4 31 25 31 19 0 25 -5 22 -17z m662 -28 c0 -10
-10 -15 -27 -15 l-28 1 25 14 c31 18 30 18 30 0z m-2556 -11 c20 -8 21 -67 1
-84 -20 -16 -33 -5 -41 35 -9 48 3 63 40 49z m153 -5 c21 -21 3 -39 -37 -39
-41 0 -55 11 -46 35 6 18 67 20 83 4z m5573 -57 c0 -13 -30 -52 -41 -52 -14 0
-11 22 8 42 17 19 33 24 33 10z m-5475 -72 c3 -5 1 -10 -4 -10 -6 0 -11 5 -11
10 0 6 2 10 4 10 3 0 8 -4 11 -10z m5685 -4 c0 -2 -6 -21 -13 -42 -7 -22 -11
-56 -9 -77 3 -32 5 -35 17 -23 8 8 38 17 66 21 28 4 59 15 70 26 10 10 20 15
23 11 7 -11 -16 -35 -49 -52 -18 -9 -39 -34 -52 -61 -53 -107 -104 -122 -243
-71 -47 17 -94 31 -104 32 -21 0 -45 27 -46 49 0 22 31 51 55 51 12 0 43 -16
68 -35 25 -19 51 -35 56 -35 16 0 13 20 -4 26 -30 12 -49 123 -24 149 6 5 9 4
9 -5 0 -11 3 -11 12 -2 7 7 21 12 33 12 11 1 31 7 45 15 22 13 90 21 90 11z
m-5667 -23 c-7 -2 -19 -2 -25 0 -7 3 -2 5 12 5 14 0 19 -2 13 -5z m-648 -13
c3 -5 2 -10 -4 -10 -5 0 -13 5 -16 10 -3 6 -2 10 4 10 5 0 13 -4 16 -10z m238
0 c8 0 8 -3 0 -11 -7 -7 -23 -9 -39 -5 -22 6 -25 9 -13 17 7 5 20 7 27 4 8 -3
19 -5 25 -5z m287 -30 c9 0 16 -9 17 -22 0 -13 -1 -17 -4 -10 -6 16 -23 15
-23 -2 0 -7 9 -16 21 -19 12 -3 19 -12 17 -19 -3 -7 2 -19 9 -27 22 -22 10
-36 -35 -39 -39 -3 -57 10 -29 21 6 3 0 6 -15 6 -16 1 -28 6 -28 11 0 6 -10
10 -22 10 -24 0 -138 42 -138 50 0 6 82 34 125 44 11 3 36 3 55 0 19 -2 42 -4
50 -4z m-166 -165 c15 -8 33 -12 38 -9 6 4 9 1 6 -6 -2 -8 -11 -18 -19 -23
-20 -12 -89 17 -89 37 0 20 27 20 64 1z m-344 -11 c41 -17 51 -39 28 -62 -19
-19 -27 -14 -36 21 -6 24 -16 35 -43 44 -26 9 -29 12 -12 12 13 1 41 -6 63
-15z m5300 -139 c0 -6 -13 -16 -30 -23 -16 -8 -30 -20 -30 -28 0 -8 -9 -14
-20 -14 -11 0 -20 6 -20 13 0 7 9 19 20 27 11 8 20 21 20 29 0 8 8 23 17 33
16 18 17 18 30 -4 7 -13 12 -28 13 -33z m-4293 -7 c-3 -8 -6 -5 -6 6 -1 11 2
17 5 13 3 -3 4 -12 1 -19z m-78 -113 c0 -18 -1 -17 -13 5 -8 14 -12 29 -9 33
8 12 23 -14 22 -38z m3146 -315 c0 -36 -1 -36 -16 -9 -9 17 -8 23 2 30 8 5 14
9 14 9 0 0 0 -13 0 -30z m659 3 c8 -20 -14 -36 -31 -22 -14 12 -6 39 12 39 7
0 16 -8 19 -17z m-1699 -153 c13 -6 15 -9 5 -9 -8 0 -22 4 -30 9 -18 12 -2 12
25 0z m-120 -75 c-31 -13 -41 -13 -32 2 3 4 18 9 34 9 l28 1 -30 -12z m1896
-17 c4 -6 16 -7 29 -3 17 5 28 0 51 -27 15 -18 28 -41 29 -50 0 -18 47 -48 77
-49 16 0 16 -1 -2 -9 -18 -8 -18 -9 6 -9 14 -1 35 -12 48 -25 15 -16 29 -22
46 -18 26 4 35 -12 13 -21 -7 -3 -3 -6 10 -6 19 -1 22 -6 22 -41 0 -33 3 -40
20 -40 34 0 22 -27 -22 -50 -30 -16 -53 -21 -80 -17 -46 6 -47 -2 -8 -46 34
-39 36 -47 15 -47 -17 0 -21 -35 -5 -45 8 -5 7 -11 -1 -21 -9 -11 -8 -14 4
-14 9 0 19 5 22 10 15 24 90 0 98 -31 6 -21 42 -26 53 -8 5 8 10 6 16 -5 5 -9
17 -16 27 -16 24 0 37 -30 13 -30 -16 -1 -16 -1 1 -11 9 -5 23 -7 30 -3 6 4 9
3 4 -1 -13 -15 -81 -37 -107 -35 -34 2 -60 3 -90 1 -131 -6 -157 4 -223 81
-89 105 -139 202 -152 293 -4 28 -9 59 -12 70 -11 55 -19 212 -11 228 7 14 16
17 41 11 18 -3 35 -11 38 -16z m2239 -2502 c0 -2 7 -40 15 -83 19 -97 19 -90
-7 -96 -15 -4 -26 -1 -31 9 -11 20 -50 11 -77 -16 -17 -17 -50 -28 -50 -16 0
9 71 158 86 181 10 15 26 25 40 25 13 0 24 -2 24 -4z m-450 -33 c0 -9 -8 -25
-17 -35 -12 -14 -17 -36 -16 -82 0 -59 -1 -64 -27 -80 -33 -19 -60 -21 -60 -3
0 17 12 32 33 40 9 3 17 17 17 29 0 13 3 33 6 46 5 16 2 22 -10 22 -10 0 -16
9 -16 25 0 19 8 29 33 39 43 19 57 19 57 -1z m984 -83 c30 -23 56 -50 59 -62
7 -26 -9 -58 -28 -58 -10 0 -15 -10 -15 -30 0 -23 -6 -33 -26 -42 -22 -10 -32
-9 -69 11 -23 12 -57 34 -74 49 l-31 27 55 73 c31 39 60 72 66 72 5 0 34 -18
63 -40z m-1154 -320 c22 -12 37 -67 22 -82 -7 -7 -15 -4 -24 11 -7 11 -16 21
-20 21 -15 0 -8 -24 15 -48 26 -27 31 -99 8 -125 -32 -39 -94 -3 -107 61 -6
28 -4 32 15 32 14 0 25 -9 31 -25 5 -14 16 -25 25 -25 22 0 19 13 -15 55 -33
42 -35 51 -19 92 16 41 35 51 69 33z m898 -32 c-2 -16 -11 -24 -29 -26 -43 -5
-57 -88 -16 -94 14 -2 23 -11 25 -25 3 -22 0 -23 -66 -23 -39 0 -77 -3 -86 -6
-12 -5 -16 0 -16 20 0 18 5 26 18 26 30 0 41 14 48 59 7 41 6 43 -15 36 -18
-5 -21 -2 -21 19 0 28 13 33 103 35 55 1 58 0 55 -21z m-227 -19 c17 -17 19
-28 13 -62 -3 -23 -14 -52 -23 -64 -17 -24 -72 -48 -135 -58 -37 -6 -38 -5
-32 18 3 13 10 55 15 92 11 72 15 80 46 88 50 12 95 7 116 -14z m-499 -17 c72
-15 76 -18 73 -42 -2 -21 -7 -25 -33 -23 l-31 3 -7 -81 -7 -80 -31 3 -31 3 3
87 c4 84 3 86 -20 90 -18 2 -24 10 -26 37 -3 29 -1 33 15 26 10 -4 52 -14 95
-23z m934 -6 c29 -29 34 -41 34 -80 0 -47 -21 -79 -63 -92 -27 -9 -103 23
-127 53 -32 40 -27 95 11 127 46 39 101 36 145 -8z m-636 2 c0 -6 -5 -39 -11
-73 -14 -83 -41 -115 -102 -122 -69 -8 -80 5 -72 86 9 93 13 101 41 101 25 0
25 0 18 -70 -6 -67 -6 -70 14 -70 26 0 37 20 47 80 4 25 11 53 17 63 10 19 48
24 48 5z"/>
<path d="M3448 7023 c7 -3 16 -2 19 1 4 3 -2 6 -13 5 -11 0 -14 -3 -6 -6z"/>
<path d="M578 6603 c12 -2 32 -2 45 0 12 2 2 4 -23 4 -25 0 -35 -2 -22 -4z"/>
<path d="M585 5668 c-14 -21 -14 -24 2 -36 14 -10 43 -11 118 -6 55 3 103 8
108 11 4 2 7 15 7 29 0 24 0 24 -109 24 -103 0 -111 -1 -126 -22z"/>
<path d="M815 5490 c-9 -14 36 -29 59 -20 11 4 22 12 24 18 5 15 -74 16 -83 2z"/>
<path d="M447 5464 c-9 -10 2 -24 19 -24 8 0 14 7 14 15 0 15 -21 21 -33 9z"/>
<path d="M7112 1375 c-9 -20 -9 -25 3 -25 19 0 28 17 17 35 -7 13 -10 12 -20
-10z"/>
<path d="M7650 1305 c0 -19 39 -40 52 -27 6 6 2 15 -13 26 -29 20 -39 20 -39
1z"/>
<path d="M7611 1256 c-10 -12 -8 -18 14 -32 36 -24 53 -5 22 24 -21 20 -26 21
-36 8z"/>
<path d="M7116 928 c-17 -77 -7 -92 38 -57 37 29 33 73 -6 77 -22 3 -28 -2
-32 -20z"/>
<path d="M7548 915 c-17 -38 3 -75 41 -75 30 0 41 14 41 54 0 49 -62 65 -82
21z"/>
<path d="M668 8248 c9 -9 15 -9 24 0 9 9 7 12 -12 12 -19 0 -21 -3 -12 -12z"/>
<path d="M890 8250 c0 -5 5 -10 10 -10 6 0 10 5 10 10 0 6 -4 10 -10 10 -5 0
-10 -4 -10 -10z"/>
<path d="M6413 7653 c9 -2 23 -2 30 0 6 3 -1 5 -18 5 -16 0 -22 -2 -12 -5z"/>
<path d="M8320 7523 c0 -7 -7 -13 -15 -13 -18 0 -20 -17 -2 -23 6 -2 -4 -12
-23 -22 -23 -12 -35 -14 -38 -6 -2 7 -9 8 -21 1 -10 -5 -46 -8 -80 -7 -41 1
-61 -2 -61 -10 0 -6 -9 -15 -20 -18 -11 -3 -20 -11 -20 -16 0 -13 -25 11 -33
31 -5 13 -6 13 -6 -1 -1 -9 -7 -16 -13 -17 -28 -3 -117 -28 -124 -35 -12 -12
-24 -8 -24 8 0 8 -7 15 -16 15 -14 0 -14 -3 -4 -16 11 -12 10 -18 -4 -32 -13
-14 -20 -14 -36 -4 -34 21 -51 15 -44 -15 12 -55 14 -59 24 -43 7 11 9 3 7
-24 -2 -34 -6 -41 -36 -53 -18 -8 -40 -12 -47 -9 -8 3 -14 -1 -14 -9 0 -9 9
-15 21 -15 18 0 20 -2 9 -15 -10 -12 -15 -13 -20 -4 -5 7 -10 8 -14 1 -3 -6
-2 -13 4 -17 12 -8 12 -16 1 -34 -8 -13 -12 -13 -26 -1 -15 13 -17 12 -14 -5
3 -12 14 -21 27 -23 15 -2 22 -10 22 -25 0 -16 -3 -18 -12 -9 -19 19 -28 14
-28 -16 0 -16 9 -37 20 -47 11 -10 20 -23 20 -30 0 -6 10 -11 23 -10 24 0 57
26 57 44 0 13 27 15 35 2 3 -5 1 -13 -5 -16 -8 -5 -8 -11 0 -20 8 -10 7 -14
-2 -18 -10 -4 -9 -9 5 -20 9 -8 17 -19 17 -24 0 -6 7 -16 15 -23 12 -10 15 -9
15 5 0 12 5 15 16 11 9 -3 20 -6 25 -6 5 0 9 -4 9 -10 0 -5 -8 -10 -18 -10
-22 0 -72 -22 -72 -32 0 -5 -7 -8 -16 -8 -13 0 -13 2 -1 21 12 16 12 25 3 44
-12 28 -31 32 -40 10 -8 -23 -45 -18 -56 8 -6 15 -9 17 -9 5 -1 -9 -4 -24 -8
-34 -4 -12 -3 -15 5 -10 7 4 12 3 12 -3 0 -5 -6 -12 -12 -15 -10 -3 -9 -8 3
-18 14 -11 15 -23 8 -68 -5 -31 -7 -71 -5 -90 9 -83 19 -130 30 -132 6 0 16
-2 21 -2 6 -1 16 -5 23 -9 13 -9 32 -1 32 14 0 5 -13 9 -29 9 -21 0 -30 6 -34
22 -3 12 -3 26 1 32 3 6 5 19 4 29 -2 9 2 17 7 17 6 0 11 -6 11 -12 0 -7 11
-21 24 -30 24 -17 24 -17 41 17 9 20 27 42 40 51 22 14 26 14 50 -2 23 -15 26
-22 20 -50 -6 -32 -88 -128 -99 -116 -14 13 -35 -22 -29 -47 6 -24 5 -25 -11
-12 -9 8 -15 20 -12 27 6 16 -12 30 -42 32 -14 0 -22 -4 -19 -11 2 -7 11 -11
20 -9 8 1 18 -2 22 -8 3 -5 -3 -10 -14 -10 -21 0 -37 -17 -26 -28 3 -3 10 0
15 8 8 13 10 12 10 -2 0 -10 -4 -18 -10 -18 -5 0 -10 -13 -10 -29 0 -17 -4
-33 -10 -36 -5 -3 -10 -19 -10 -35 0 -24 4 -28 24 -27 14 1 25 -2 25 -8 0 -5
-7 -9 -16 -8 -11 1 -13 -5 -9 -20 3 -12 6 -28 6 -34 0 -7 7 -13 15 -13 20 0
19 -36 -1 -44 -27 -10 -12 -41 24 -46 38 -6 39 -25 1 -25 -14 0 -33 -6 -43
-14 -15 -13 -15 -15 0 -26 14 -9 14 -15 4 -32 -10 -15 -10 -25 -2 -39 9 -15
11 -16 12 -3 0 8 10 26 22 39 15 16 18 25 10 28 -20 6 -3 22 24 22 14 0 24 6
24 14 0 9 9 13 28 11 83 -8 103 -45 23 -45 -35 0 -51 -4 -55 -16 -8 -22 -8
-24 8 -24 8 0 16 -4 18 -8 2 -5 15 -12 31 -16 20 -5 29 -2 33 9 3 8 10 12 15
9 5 -2 17 0 27 5 31 16 58 -12 53 -56 0 -6 -10 -15 -21 -18 -13 -4 -20 -15
-20 -30 0 -13 -5 -27 -11 -31 -7 -4 -10 4 -7 22 3 28 1 29 -46 32 -36 2 -54 9
-64 23 -23 33 -72 18 -72 -23 0 -23 -9 -23 -26 0 -12 15 -13 12 -12 -26 1 -23
-4 -48 -10 -54 -7 -7 -12 -25 -12 -40 0 -23 4 -28 24 -28 14 0 27 4 30 9 6 8
46 22 46 16 0 -2 -17 -20 -37 -41 -22 -20 -30 -34 -20 -30 11 3 16 2 12 -4 -9
-15 4 -47 22 -54 13 -5 15 0 10 33 -4 29 -1 41 10 45 22 9 26 7 19 -9 -7 -19
-1 -19 18 0 8 9 39 18 67 21 37 3 57 11 66 24 17 24 64 26 160 6 81 -17 103
-25 103 -37 0 -19 49 -59 74 -59 19 0 26 -5 26 -19 0 -14 -5 -18 -20 -14 -11
3 -20 0 -20 -6 0 -6 8 -11 19 -11 10 0 32 -7 47 -15 19 -10 57 -15 109 -14 76
0 79 1 58 16 -25 17 -31 53 -9 53 7 0 24 -10 37 -22 16 -15 36 -23 59 -23 19
0 40 -5 45 -11 14 -16 83 -25 91 -12 4 6 -1 17 -11 24 -28 21 -11 28 24 10 20
-11 28 -21 25 -31 -4 -10 0 -15 13 -15 10 0 24 -5 30 -11 7 -7 42 -11 85 -10
125 2 125 2 137 27 9 21 15 23 62 18 28 -3 61 -11 72 -19 19 -14 19 -14 -6
-21 -15 -3 -24 -10 -21 -15 3 -5 0 -9 -5 -9 -6 0 -11 5 -11 10 0 6 -16 10 -35
10 -31 0 -34 -2 -24 -18 6 -10 34 -24 63 -31 77 -19 81 -19 79 7 -4 29 29 42
101 42 36 0 58 -5 66 -15 17 -20 10 -26 -40 -32 -43 -6 -63 -28 -39 -44 8 -5
38 -9 68 -9 l54 0 -19 22 c-18 20 -18 21 -1 15 10 -4 21 -7 23 -7 2 0 4 -7 4
-15 0 -8 5 -15 10 -15 6 0 10 4 10 9 0 9 74 21 166 26 46 3 53 1 64 -21 19
-34 40 -31 40 6 0 28 2 30 38 30 20 0 43 -4 50 -9 9 -5 32 0 62 15 46 22 49
22 111 8 35 -8 82 -19 104 -23 22 -5 69 -24 105 -43 62 -34 177 -61 251 -59
16 1 26 -4 26 -13 0 -14 -40 -20 -194 -31 -131 -10 -165 -20 -132 -41 8 -5 6
-10 -5 -16 -21 -12 -37 -2 -34 20 3 14 -6 17 -47 17 -106 -1 -390 -27 -400
-36 -15 -14 -20 -188 -6 -202 6 -6 50 -12 99 -12 48 -1 94 -5 103 -9 9 -4 36
-4 60 0 83 13 118 6 168 -30 55 -39 81 -49 105 -40 15 6 15 7 -1 19 -17 13
-17 14 2 21 11 4 28 16 37 28 l18 21 0 -23 c0 -21 4 -23 28 -17 20 4 34 0 48
-14 14 -13 26 -16 35 -10 8 5 22 9 32 9 11 0 30 9 44 20 30 23 95 27 112 6 7
-8 21 -12 31 -9 11 3 20 0 20 -6 0 -14 116 -15 125 -1 3 6 19 10 36 10 l29 0
0 176 c0 114 -3 173 -10 169 -5 -3 -10 -22 -10 -41 0 -24 -5 -36 -17 -40 -10
-3 -30 -12 -45 -20 -24 -13 -33 -13 -84 5 -57 19 -61 28 -11 26 20 -1 27 4 27
17 0 10 -5 18 -11 18 -6 0 -8 8 -6 18 3 9 8 34 12 55 6 37 6 37 -30 37 -19 0
-35 -5 -35 -11 0 -5 -5 -7 -11 -3 -6 4 -26 10 -44 14 -34 8 -57 -3 -68 -32 -9
-26 -26 -22 -40 10 -6 15 -14 29 -17 32 -6 6 -30 48 -30 54 0 2 9 2 20 -1 11
-3 20 -9 20 -14 0 -17 104 -9 150 12 37 16 46 18 55 7 7 -10 22 -12 50 -7 22
4 47 3 55 -1 9 -5 23 -4 32 1 12 7 17 4 21 -13 7 -26 -8 -58 -28 -58 -24 0
-17 -26 10 -38 14 -7 30 -12 36 -12 6 0 9 39 8 100 -1 55 -5 97 -10 95 -4 -3
-10 -1 -14 5 -3 5 -17 10 -31 10 -18 0 -24 5 -24 23 0 21 36 47 67 47 10 0 13
37 13 170 l0 170 -80 0 c-64 0 -80 3 -80 15 0 8 6 16 13 17 26 3 54 5 100 7
42 1 47 3 47 24 0 22 -3 23 -77 22 -66 0 -78 3 -81 18 -3 15 6 17 77 17 l81 0
0 31 c0 24 -4 29 -17 25 -18 -5 -84 -9 -113 -7 -8 1 -22 6 -30 11 -27 18 9 30
88 30 65 0 72 2 72 20 0 17 -7 20 -44 20 -47 0 -106 17 -106 31 0 5 18 12 40
15 48 8 52 26 13 66 -29 31 -64 36 -83 13 -16 -19 -37 -19 -57 1 -13 12 -13
20 -4 40 6 14 15 23 19 20 4 -2 56 -7 115 -11 l107 -6 0 369 c0 410 3 392 -67
398 -21 2 -63 17 -96 35 -47 25 -68 30 -110 28 -29 -1 -59 1 -67 4 -16 7 -145
-6 -171 -17 -9 -4 -26 3 -43 18 -34 29 -79 38 -206 41 -94 3 -142 14 -155 34
-3 6 -24 11 -45 11 -21 0 -41 4 -45 9 -3 5 -21 7 -40 4 -25 -4 -41 -1 -53 10
-25 23 -64 30 -96 17 -15 -5 -33 -7 -39 -3 -17 10 -44 4 -80 -17 -26 -16 -32
-17 -44 -4 -12 12 -47 19 -75 16 -3 -1 -12 5 -18 13 -13 16 -51 20 -64 8 -4
-4 -23 -6 -42 -4 -31 2 -34 0 -34 -23 0 -30 -9 -31 -72 -12 -46 13 -108 11
-108 -5 0 -13 -21 -11 -54 6 -15 8 -37 15 -47 15 -24 0 -34 -18 -12 -22 17 -4
-47 -8 -141 -10 -21 0 -42 5 -46 12 -5 8 -16 9 -30 5 -18 -6 -20 -9 -9 -16 9
-6 0 -9 -27 -9 -27 0 -51 7 -68 21 -21 17 -26 18 -26 5 0 -9 -9 -16 -20 -16
-14 0 -20 6 -18 17 2 10 -4 19 -14 21 -13 3 -18 -3 -18 -21 0 -20 -4 -23 -25
-19 -19 3 -25 11 -26 31 0 23 -1 24 -8 6 -5 -11 -7 -23 -4 -27 2 -5 -1 -8 -7
-8 -11 0 -30 19 -79 80 -11 14 -20 19 -21 13z m-244 -154 c3 -5 2 -9 -3 -9 -4
-1 -32 -3 -60 -6 -30 -2 -53 0 -53 5 0 18 106 26 116 10z m-156 -59 c0 -5 -4
-10 -10 -10 -5 0 -10 5 -10 10 0 6 5 10 10 10 6 0 10 -4 10 -10z m1170 -20 c0
-5 -4 -10 -10 -10 -5 0 -10 5 -10 10 0 6 5 10 10 10 6 0 10 -4 10 -10z m-1155
-10 c4 -6 -9 -10 -32 -9 -38 1 -38 1 -8 9 17 4 31 8 32 9 1 0 5 -3 8 -9z m65
0 c0 -5 -5 -10 -11 -10 -5 0 -7 5 -4 10 3 6 8 10 11 10 2 0 4 -4 4 -10z m-3
-56 c-3 -3 -12 -4 -19 -1 -8 3 -5 6 6 6 11 1 17 -2 13 -5z m-203 -20 c15 -6
15 -8 -1 -20 -25 -19 -33 -17 -33 6 0 21 8 24 34 14z m2840 -19 c-7 -17 -20
-20 -29 -6 -3 5 3 12 12 14 10 3 19 5 20 6 1 0 0 -6 -3 -14z m-2587 -131 c-3
-3 -12 -4 -19 -1 -8 3 -5 6 6 6 11 1 17 -2 13 -5z m-198 -23 c10 -7 11 -13 2
-27 -10 -18 -10 -18 -11 3 0 12 -6 24 -12 26 -7 3 -8 6 -3 6 6 0 16 -3 24 -8z
m-139 -11 c0 -5 -7 -10 -15 -10 -8 0 -15 5 -15 10 0 6 7 10 15 10 8 0 15 -4
15 -10z m28 -32 c-3 -7 -11 -13 -18 -13 -7 0 -15 6 -17 13 -3 7 4 12 17 12 13
0 20 -5 18 -12z m567 -88 c3 -5 -3 -10 -14 -10 -12 0 -21 5 -21 10 0 6 6 10
14 10 8 0 18 -4 21 -10z m1740 1 c-22 -9 -260 -22 -252 -15 6 6 156 21 222 22
34 1 44 -2 30 -7z m-1990 -31 c-25 -6 -27 -8 -12 -15 10 -4 20 -5 23 -2 4 3
16 -3 28 -14 21 -20 21 -21 2 -35 -13 -9 -23 -10 -31 -4 -7 6 -33 13 -59 16
l-48 7 31 19 c17 11 31 24 31 29 0 5 15 8 33 8 l32 -1 -30 -8z m1620 -1 c-38
-5 -110 -16 -160 -25 -49 -8 -115 -19 -145 -24 -30 -5 -71 -12 -90 -16 -57
-11 -30 3 40 21 78 20 317 53 380 53 35 0 30 -2 -25 -9z m-1932 -25 c21 -8 9
-54 -14 -54 -24 0 -25 16 -1 29 9 6 11 11 5 11 -7 0 -13 5 -13 10 0 12 3 12
23 4z m166 -3 c9 -6 10 -10 2 -16 -15 -8 -41 1 -41 15 0 12 20 13 39 1z m-98
-38 c-9 -32 -28 -41 -38 -17 -4 11 0 22 12 30 28 20 34 17 26 -13z m1422 -10
c-7 -2 -19 -2 -25 0 -7 3 -2 5 12 5 14 0 19 -2 13 -5z m-163 -43 c-8 -5 -19
-10 -25 -10 -5 0 -3 5 5 10 8 5 20 10 25 10 6 0 3 -5 -5 -10z m-50 -15 c0 -6
-73 -25 -78 -20 -2 2 11 8 29 14 41 11 49 12 49 6z m1180 -4 c0 -5 -7 -11 -15
-15 -15 -5 -20 5 -8 17 9 10 23 9 23 -2z m-2440 -25 c0 -3 -4 -8 -10 -11 -5
-3 -10 -1 -10 4 0 6 5 11 10 11 6 0 10 -2 10 -4z m1167 -2 c-3 -3 -12 -4 -19
-1 -8 3 -5 6 6 6 11 1 17 -2 13 -5z m186 -25 c20 -5 37 -13 37 -17 -1 -29 -35
-38 -127 -34 -36 2 -43 5 -43 22 0 36 62 49 133 29z m150 -15 c21 -8 22 -20 3
-27 -15 -6 -66 28 -66 43 0 5 10 5 23 0 12 -6 30 -13 40 -16z m102 -39 c31
-18 44 -33 49 -56 5 -25 10 -30 26 -26 11 3 25 -2 32 -10 10 -12 9 -18 -7 -29
-24 -18 -39 -13 -43 12 -2 10 -9 24 -15 29 -7 6 -20 22 -30 38 -10 15 -27 27
-38 27 -19 0 -49 21 -49 34 0 13 36 4 75 -19z m-65 -50 c0 -14 -4 -25 -10 -25
-5 0 -10 11 -10 25 0 14 5 25 10 25 6 0 10 -11 10 -25z m-1125 -15 c16 -7 13
-9 -17 -9 -21 -1 -38 4 -38 9 0 12 27 12 55 0z m1108 -24 c11 11 52 10 59 -1
16 -22 6 -33 -33 -39 -42 -7 -50 -28 -13 -34 50 -7 64 -14 64 -27 0 -11 11
-15 41 -15 32 0 40 -3 36 -14 -4 -10 -1 -13 9 -9 17 6 47 71 38 84 -10 17 49
31 89 20 28 -7 49 -6 76 4 44 15 125 6 148 -18 15 -14 14 -16 -10 -23 -15 -3
-27 -9 -27 -13 0 -12 -64 -31 -103 -31 -34 0 -36 1 -27 24 7 18 5 26 -6 30
-19 7 -44 -3 -44 -19 0 -6 -9 -20 -20 -30 -29 -26 -20 -40 26 -41 21 0 69 -4
107 -9 l67 -8 0 37 c0 46 28 51 37 6 5 -25 10 -30 35 -30 30 0 48 -24 31 -41
-9 -9 -89 -15 -244 -18 -51 -1 -56 -3 -54 -23 2 -22 5 -23 121 -25 65 -1 135
-2 154 -3 19 -1 110 1 203 5 144 6 167 5 167 -7 0 -12 -18 -17 -72 -22 -88 -9
-98 -9 -168 1 -30 5 -80 4 -110 0 -90 -14 -211 -23 -247 -19 -25 3 -40 14 -63
45 -16 23 -30 35 -30 28 0 -7 -5 -9 -11 -6 -6 4 -8 14 -5 22 7 17 -30 52 -55
53 -9 0 -22 -6 -29 -14 -16 -20 -36 -10 -50 23 -11 27 -13 28 -52 18 -39 -10
-40 -11 -36 -46 3 -20 1 -45 -4 -56 -6 -16 -7 -14 -3 8 4 20 1 27 -10 27 -8 0
-15 6 -16 13 0 6 -2 31 -5 55 -3 26 0 49 7 58 7 8 7 14 1 14 -5 0 -12 9 -15
20 -4 16 -14 20 -51 20 -25 0 -46 4 -46 8 0 12 112 29 126 20 6 -4 14 -5 17
-2z m-782 -14 c-13 -9 -43 -28 -65 -41 -39 -23 -40 -23 -22 -3 11 12 24 22 31
22 7 0 22 9 35 20 13 11 28 20 34 19 6 0 0 -8 -13 -17z m-665 -60 c-18 -16
-19 -16 -12 1 3 10 6 24 6 30 0 8 4 7 12 -1 10 -9 8 -16 -6 -30z m1226 14 c16
-12 16 -14 -5 -34 -12 -11 -35 -25 -50 -31 -17 -7 -25 -15 -21 -23 5 -8 -5 -9
-39 -5 -26 4 -47 4 -47 1 0 -19 24 -44 43 -45 16 -1 17 -3 5 -6 -9 -2 -24 -15
-33 -29 -20 -30 -8 -51 33 -57 26 -3 26 -4 -10 -20 -39 -18 -49 -44 -29 -76 6
-9 5 -21 -2 -32 -9 -14 -9 -26 0 -48 9 -24 8 -31 -3 -35 -8 -3 -14 -12 -14
-19 0 -8 -10 -22 -22 -30 -18 -13 -20 -18 -10 -25 18 -12 168 -21 257 -16 73
4 94 4 160 0 22 -1 48 3 58 9 13 7 20 6 27 -5 17 -26 11 -33 -25 -27 -19 3
-37 2 -40 -2 -6 -10 -106 -8 -123 3 -6 3 -20 1 -32 -6 -15 -10 -25 -10 -38 -2
-13 9 -21 8 -31 -3 -10 -11 -28 -13 -78 -7 -78 8 -83 3 -83 -77 0 -59 -17 -88
-42 -72 -13 8 -102 31 -143 37 -35 5 -80 18 -92 29 -8 5 -13 32 -13 64 0 67
-14 96 -41 88 -13 -4 -19 -2 -19 8 0 9 -5 17 -12 19 -6 2 -11 24 -11 50 0 38
-4 48 -21 53 -13 4 -16 8 -8 12 6 2 12 13 12 23 0 10 5 22 11 25 6 4 9 32 6
68 -2 34 0 69 4 77 4 8 11 32 14 53 3 20 10 37 16 37 6 0 8 -4 4 -9 -10 -17
13 -22 35 -9 17 11 22 11 30 -2 7 -11 34 -15 111 -17 100 -3 137 6 122 30 -3
6 -1 7 5 3 7 -4 12 -2 12 3 0 6 7 11 15 11 8 0 15 6 15 13 0 21 35 48 52 42 8
-3 21 1 28 10 15 18 39 19 62 1z m1433 2 c30 -13 17 -28 -26 -28 -32 0 -42 9
-28 27 14 16 21 16 54 1z m-67 -58 c12 -11 28 -20 36 -20 8 0 18 -4 21 -10 3
-5 18 -10 32 -10 l26 0 -6 -152 c-8 -183 -12 -202 -41 -193 -11 3 -38 9 -58
12 -21 3 -38 9 -38 14 0 4 -17 9 -37 11 -60 5 -68 31 -57 207 l9 146 30 6 c51
11 60 10 83 -11z m-2632 -27 c-11 -11 -19 6 -11 24 8 17 8 17 12 0 3 -10 2
-21 -1 -24z m2192 -4 c9 -13 17 -17 25 -12 12 10 169 8 194 -1 7 -3 13 -12 13
-19 0 -10 -22 -15 -82 -19 -116 -8 -192 2 -196 25 -9 45 23 63 46 26z m-888
-46 c0 -7 -4 -13 -9 -13 -16 0 -31 27 -25 44 6 15 8 15 20 -1 7 -10 14 -24 14
-30z m-733 21 c-3 -3 -12 -4 -19 -1 -8 3 -5 6 6 6 11 1 17 -2 13 -5z m651 -21
c5 -17 -26 -29 -40 -15 -6 6 -7 15 -3 22 9 14 37 9 43 -7z m-1018 -53 c0 -5
-4 -10 -10 -10 -5 0 -10 5 -10 10 0 6 5 10 10 10 6 0 10 -4 10 -10z m-42 -47
c2 -9 -9 -13 -40 -13 -40 1 -42 2 -23 16 23 17 56 15 63 -3z m1142 -13 c-8 -5
-19 -9 -25 -9 -5 0 -4 3 3 6 6 2 12 12 12 21 0 13 3 13 12 4 10 -10 10 -15 -2
-22z m-1030 10 c13 -9 13 -11 0 -20 -8 -5 -22 -10 -30 -10 -8 0 -22 5 -30 10
-13 9 -13 11 0 20 8 5 22 10 30 10 8 0 22 -5 30 -10z m1101 -5 c-1 -15 -24
-12 -29 3 -3 9 2 13 12 10 10 -1 17 -7 17 -13z m149 5 c0 -6 -8 -14 -17 -17
-10 -4 -21 -11 -25 -17 -5 -8 -10 -8 -18 0 -9 9 -5 13 14 18 14 3 26 11 26 16
0 6 5 10 10 10 6 0 10 -5 10 -10z m-1142 -17 c-10 -2 -26 -2 -35 0 -10 3 -2 5
17 5 19 0 27 -2 18 -5z m829 1 c-3 -3 -12 -4 -19 -1 -8 3 -5 6 6 6 11 1 17 -2
13 -5z m-487 -28 c0 -16 -18 -31 -27 -22 -8 8 5 36 17 36 5 0 10 -6 10 -14z
m-80 -33 c0 -6 -15 -13 -32 -15 -37 -4 -24 -13 34 -23 37 -6 38 -6 22 -30 -8
-13 -30 -30 -48 -39 -41 -19 -64 -82 -45 -118 19 -37 92 -103 147 -134 29 -16
50 -34 48 -41 -3 -6 3 -14 12 -17 9 -3 -2 -3 -25 -1 -47 6 -73 -1 -73 -20 0
-16 -45 -8 -61 11 -6 8 -17 14 -24 14 -7 0 -15 7 -19 15 -3 8 -12 15 -20 15
-7 0 -17 12 -22 28 -5 20 -8 23 -11 10 -6 -24 -24 -23 -30 2 -3 13 -14 20 -28
20 -13 0 -37 11 -53 25 -17 14 -35 25 -41 25 -6 0 -11 5 -11 10 0 6 -15 10
-32 10 -64 0 -76 8 -74 48 2 40 21 82 42 95 8 4 14 14 14 21 0 21 25 37 66 42
43 5 56 12 49 25 -4 5 -1 9 4 9 6 0 11 -7 11 -15 0 -17 14 -18 45 -5 16 7 17
9 3 9 -9 1 -20 6 -24 12 -5 8 6 9 35 4 35 -6 40 -4 35 9 -6 16 3 20 38 17 9
-1 19 3 23 8 8 13 45 -8 45 -26z m1187 11 c12 5 121 7 233 5 8 0 88 3 178 7
147 6 162 5 162 -10 0 -14 -13 -16 -87 -16 -153 -1 -375 -9 -463 -18 -47 -5
-86 -8 -87 -7 -2 1 -6 16 -9 34 l-7 33 32 -17 c18 -9 40 -14 48 -11z m-457
-19 c0 -8 -4 -15 -10 -15 -5 0 -10 7 -10 15 0 8 5 15 10 15 6 0 10 -7 10 -15z
m-1110 -10 c0 -11 -11 -15 -37 -15 -36 1 -37 2 -19 15 26 19 56 19 56 0z m943
-5 c-6 -22 -18 -26 -28 -10 -8 13 3 30 20 30 8 0 11 -7 8 -20z m-942 -45 c0
-5 -8 -12 -18 -13 -10 -2 -24 -11 -30 -20 -9 -10 -13 -11 -13 -3 0 7 -4 9 -10
6 -5 -3 -19 -1 -30 5 -17 9 -19 14 -10 26 7 7 15 12 19 10 4 -3 13 -1 20 3 16
10 72 -1 72 -14z m1974 -4 c9 -16 -13 -23 -47 -16 -22 5 -27 9 -17 16 18 12
56 11 64 0z m145 5 c0 -9 -30 -14 -35 -6 -4 6 3 10 14 10 12 0 21 -2 21 -4z
m-500 -27 c0 -11 -107 -12 -114 0 -3 4 -4 10 -2 12 8 8 116 -3 116 -12z m123
6 c1 -5 -6 -11 -15 -13 -11 -2 -18 3 -18 13 0 17 30 18 33 0z m97 5 c0 -5 -4
-10 -10 -10 -5 0 -10 5 -10 10 0 6 5 10 10 10 6 0 10 -4 10 -10z m310 0 c0 -5
-4 -10 -10 -10 -5 0 -10 5 -10 10 0 6 5 10 10 10 6 0 10 -4 10 -10z m-1128
-42 c-6 -6 -15 -9 -18 -5 -4 3 -4 14 0 23 5 13 9 15 18 6 9 -9 9 -15 0 -24z
m-82 12 c0 -5 -4 -10 -10 -10 -5 0 -10 5 -10 10 0 6 5 10 10 10 6 0 10 -4 10
-10z m180 0 c0 -5 -4 -10 -10 -10 -5 0 -10 5 -10 10 0 6 5 10 10 10 6 0 10 -4
10 -10z m180 6 c0 -2 -7 -6 -15 -10 -8 -3 -15 -1 -15 4 0 6 7 10 15 10 8 0 15
-2 15 -4z m-1490 -26 c0 -5 -4 -10 -10 -10 -5 0 -10 5 -10 10 0 6 5 10 10 10
6 0 10 -4 10 -10z m2870 -4 c0 -2 -7 -9 -15 -16 -12 -10 -15 -10 -15 4 0 9 7
16 15 16 8 0 15 -2 15 -4z m-1211 -77 l66 -2 -50 -7 c-27 -4 -62 -5 -77 -2
-17 3 -28 0 -28 -7 0 -14 -37 -15 -45 -1 -12 19 7 32 37 26 17 -3 60 -7 97 -7z
m-949 -61 c0 -6 -7 -7 -16 -4 -9 3 -18 6 -20 6 -3 0 -3 4 1 10 7 11 35 2 35
-12z m-343 -64 c-3 -3 -12 -4 -19 -1 -8 3 -5 6 6 6 11 1 17 -2 13 -5z m463
-135 c0 -22 -25 -25 -46 -5 -22 23 -17 33 16 28 21 -3 30 -10 30 -23z m1290
-9 c8 -5 12 -12 8 -15 -9 -9 -48 4 -48 16 0 12 21 11 40 -1z m690 -15 c0 -8
-7 -15 -15 -15 -16 0 -20 12 -8 23 11 12 23 8 23 -8z m-1764 -10 c9 -8 12 -19
9 -25 -8 -13 -45 -13 -45 0 0 6 -10 10 -21 10 -18 0 -19 2 -9 15 16 19 47 19
66 0z m69 -5 c3 -5 -1 -10 -9 -10 -9 0 -16 -5 -16 -12 0 -9 -3 -9 -12 0 -10
10 -10 15 2 22 19 12 27 12 35 0z m1281 -68 c-31 -4 -41 2 -32 17 5 7 16 6 34
-2 l27 -12 -29 -3z m56 -17 c-2 -14 -8 -22 -13 -19 -13 8 -11 32 4 37 6 3 13
6 13 6 1 1 -1 -10 -4 -24z m178 -49 c0 -2 -7 -7 -16 -10 -8 -3 -12 -2 -9 4 6
10 25 14 25 6z m98 -28 c-6 -18 -28 -21 -28 -4 0 9 7 16 16 16 9 0 14 -5 12
-12z m-178 -189 c0 -5 -7 -9 -15 -9 -8 0 -15 7 -15 15 0 9 6 12 15 9 8 -4 15
-10 15 -15z"/>
<path d="M8624 6316 c-9 -23 7 -38 26 -26 13 8 13 11 -2 26 -16 17 -18 17 -24
0z"/>
<path d="M8680 6299 c0 -24 23 -21 28 4 2 10 -3 17 -12 17 -10 0 -16 -9 -16
-21z"/>
<path d="M8624 6226 c-4 -10 -2 -22 4 -28 8 -8 13 -7 18 6 4 10 2 22 -4 28 -8
8 -13 7 -18 -6z"/>
<path d="M8675 6220 c-8 -14 3 -30 21 -30 16 0 16 2 8 24 -7 18 -20 21 -29 6z"/>
<path d="M8627 6144 c-10 -10 -9 -42 2 -48 5 -3 11 0 14 7 6 16 -7 50 -16 41z"/>
<path d="M8680 6125 c0 -14 5 -25 10 -25 6 0 10 11 10 25 0 14 -4 25 -10 25
-5 0 -10 -11 -10 -25z"/>
<path d="M8627 6064 c-12 -13 -8 -51 8 -64 8 -7 15 -10 15 -6 0 3 11 1 25 -4
14 -5 42 -6 67 -1 24 5 33 9 21 10 -12 1 -35 13 -52 27 -26 21 -34 24 -46 14
-12 -10 -16 -8 -23 9 -4 12 -11 19 -15 15z"/>
<path d="M8667 5895 c-8 -20 3 -47 17 -42 6 2 11 14 11 27 0 27 -20 38 -28 15z"/>
<path d="M8734 5886 c-8 -22 3 -49 19 -43 6 2 12 14 12 27 0 27 -22 39 -31 16z"/>
<path d="M8803 5874 c-3 -8 1 -23 10 -32 15 -14 17 -14 23 1 8 21 -1 47 -16
47 -6 0 -13 -7 -17 -16z"/>
<path d="M8301 6101 c-14 -4 -27 -13 -29 -20 -4 -13 24 -9 57 9 20 10 0 18
-28 11z"/>
<path d="M8380 6100 c0 -5 15 -10 33 -10 24 0 28 3 17 10 -20 13 -50 13 -50 0z"/>
<path d="M8480 5760 c0 -5 5 -10 11 -10 5 0 7 5 4 10 -3 6 -8 10 -11 10 -2 0
-4 -4 -4 -10z"/>
<path d="M8157 7489 c-4 -16 -3 -18 9 -8 16 13 19 29 5 29 -5 0 -11 -9 -14
-21z"/>
<path d="M9170 7471 c0 -6 5 -13 10 -16 6 -3 10 1 10 9 0 9 -4 16 -10 16 -5 0
-10 -4 -10 -9z"/>
<path d="M7930 7455 c13 -16 50 -21 50 -6 0 10 -24 21 -47 21 -13 0 -13 -3 -3
-15z"/>
<path d="M8460 7450 c0 -5 5 -10 10 -10 6 0 10 5 10 10 0 6 -4 10 -10 10 -5 0
-10 -4 -10 -10z"/>
<path d="M8625 7440 c-3 -5 -1 -10 4 -10 6 0 11 5 11 10 0 6 -2 10 -4 10 -3 0
-8 -4 -11 -10z"/>
<path d="M2400 7397 c0 -8 6 -17 14 -20 10 -4 13 -19 10 -54 -4 -41 -3 -45 7
-25 7 12 18 22 24 22 7 0 15 7 19 15 3 8 1 15 -4 15 -5 0 -10 12 -12 28 -2 21
-9 28 -30 30 -19 2 -28 -1 -28 -11z"/>
<path d="M1673 7346 c0 -17 4 -23 14 -19 11 4 14 -1 11 -21 -2 -15 -7 -26 -12
-25 -17 2 -24 -25 -30 -115 -4 -50 -19 -223 -33 -384 -18 -201 -23 -296 -16
-303 7 -7 38 -6 99 5 90 15 351 45 433 49 l44 2 39 115 c23 68 37 124 33 137
-3 13 -1 23 5 23 13 0 33 49 54 135 10 39 23 79 29 90 17 32 22 185 6 195 -7
5 -39 12 -71 15 -32 4 -60 11 -63 15 -3 4 -23 3 -45 -2 -22 -6 -48 -7 -57 -2
-10 4 -41 8 -70 9 -40 2 -50 -1 -46 -11 7 -18 -18 -18 -43 1 -14 10 -47 14
-121 15 -57 0 -103 4 -103 9 0 5 6 11 13 14 9 3 9 7 -2 20 -7 9 -17 14 -22 11
-5 -3 -8 0 -7 6 2 6 -7 18 -18 26 -20 14 -21 13 -21 -10z"/>
<path d="M7090 7346 c0 -2 7 -9 15 -16 9 -7 15 -8 15 -2 0 5 -7 12 -15 16 -8
3 -15 4 -15 2z"/>
<path d="M7630 7333 c0 -13 5 -23 10 -23 13 0 13 11 0 30 -8 12 -10 11 -10 -7z"/>
<path d="M7693 7338 c0 -7 -4 -20 -7 -28 -5 -11 -1 -16 14 -16 13 0 19 5 15
14 -3 7 -5 20 -5 28 0 17 -16 19 -17 2z"/>
<path d="M4173 7313 c9 -2 23 -2 30 0 6 3 -1 5 -18 5 -16 0 -22 -2 -12 -5z"/>
<path d="M3680 7270 c0 -12 -7 -20 -17 -20 -9 0 -14 -3 -10 -6 9 -9 45 5 50
21 3 7 -1 16 -9 19 -9 4 -14 -1 -14 -14z"/>
<path d="M3930 7250 c0 -11 4 -20 9 -20 5 0 7 9 4 20 -3 11 -7 20 -9 20 -2 0
-4 -9 -4 -20z"/>
<path d="M3996 7257 c3 -10 9 -15 12 -12 3 3 0 11 -7 18 -10 9 -11 8 -5 -6z"/>
<path d="M3867 7244 c-13 -13 -7 -24 14 -24 11 0 19 5 17 12 -5 14 -22 21 -31
12z"/>
<path d="M7424 7205 c-16 -12 -17 -14 -2 -15 9 0 18 -4 20 -8 2 -5 18 -3 36 5
18 7 30 18 27 23 -9 15 -59 12 -81 -5z"/>
<path d="M3740 7201 c0 -6 5 -13 10 -16 6 -3 10 1 10 9 0 9 -4 16 -10 16 -5 0
-10 -4 -10 -9z"/>
<path d="M7630 7160 c0 -19 3 -21 12 -12 9 9 9 15 0 24 -9 9 -12 7 -12 -12z"/>
<path d="M7520 7160 c0 -5 11 -10 25 -10 14 0 25 5 25 10 0 6 -11 10 -25 10
-14 0 -25 -4 -25 -10z"/>
<path d="M7557 7096 c-5 -11 -19 -13 -61 -9 -70 7 -73 -2 -5 -16 28 -6 58 -20
67 -31 27 -32 44 -12 30 33 -12 39 -22 46 -31 23z"/>
<path d="M7480 7024 c0 -12 28 -40 33 -33 1 2 8 11 15 20 11 14 8 17 -18 21
-19 3 -30 0 -30 -8z"/>
<path d="M7582 6930 c0 -14 2 -19 5 -12 2 6 2 18 0 25 -3 6 -5 1 -5 -13z"/>
<path d="M7557 6883 c-7 -11 10 -40 18 -31 4 4 3 14 -3 24 -5 9 -12 12 -15 7z"/>
<path d="M7870 6650 c0 -5 5 -10 10 -10 6 0 10 5 10 10 0 6 -4 10 -10 10 -5 0
-10 -4 -10 -10z"/>
<path d="M7855 6620 c4 -6 11 -8 16 -5 14 9 11 15 -7 15 -8 0 -12 -5 -9 -10z"/>
<path d="M10750 6410 c-12 -8 -9 -10 13 -10 15 0 27 5 27 10 0 13 -20 13 -40
0z"/>
<path d="M2102 6178 c3 -18 0 -42 -6 -53 -6 -11 -12 -21 -13 -23 -1 -2 -10 1
-21 7 -25 13 -92 2 -99 -16 -13 -33 56 -44 96 -17 17 12 26 13 34 5 15 -15 80
-14 95 1 20 20 14 62 -13 82 -14 10 -25 25 -25 32 0 8 -11 14 -26 14 -24 0
-26 -3 -22 -32z"/>
<path d="M1965 6180 c-18 -8 -18 -9 5 -9 14 0 32 4 40 9 12 8 12 10 -5 9 -11
0 -29 -4 -40 -9z"/>
<path d="M1664 6096 c-11 -28 4 -48 33 -44 22 2 28 8 28 28 0 20 -6 26 -28 28
-18 2 -29 -2 -33 -12z"/>
<path d="M3375 6060 c4 -6 11 -8 16 -5 14 9 11 15 -7 15 -8 0 -12 -5 -9 -10z"/>
<path d="M2143 6023 c-7 -2 -13 -13 -13 -24 0 -10 6 -19 13 -20 32 -3 63 4 77
17 13 13 13 16 0 24 -16 10 -56 12 -77 3z"/>
<path d="M1980 6011 c-23 -6 -26 -12 -21 -41 1 -8 24 -8 74 -1 14 2 7 39 -9
45 -9 3 -16 6 -17 5 -1 -1 -13 -4 -27 -8z"/>
<path d="M3379 5804 c-11 -14 -10 -18 6 -30 16 -12 21 -12 34 0 12 12 12 18 1
30 -16 20 -24 20 -41 0z"/>
<path d="M7631 5784 c0 -11 3 -14 6 -6 3 7 2 16 -1 19 -3 4 -6 -2 -5 -13z"/>
<path d="M3946 5624 c-4 -10 -1 -14 6 -12 15 5 23 28 10 28 -5 0 -13 -7 -16
-16z"/>
<path d="M8549 5604 c-6 -8 -19 -14 -28 -14 -34 0 -94 -22 -82 -30 9 -5 8 -9
-5 -14 -16 -6 -16 -8 -4 -16 10 -7 11 -10 3 -10 -7 0 -13 -4 -13 -8 0 -4 18
-8 40 -8 25 1 40 6 40 14 0 15 4 15 30 2 11 -5 29 -14 40 -20 24 -12 50 -13
50 -2 0 4 18 9 41 10 34 3 40 0 37 -15 -3 -14 -13 -18 -49 -18 -32 0 -51 -6
-69 -23 -23 -21 -19 -27 16 -23 17 2 33 -22 49 -75 13 -44 13 -50 -2 -67 -16
-17 -16 -17 3 -11 10 4 25 14 31 22 11 14 16 13 48 -4 40 -21 39 -19 24 -46
-10 -19 -9 -20 12 -15 13 4 28 7 32 7 5 0 5 5 1 11 -3 6 6 3 20 -6 24 -16 28
-16 39 -2 9 12 22 14 60 8 26 -4 47 -4 47 1 0 4 14 8 31 8 16 0 28 3 26 8 -7
10 121 8 130 -3 5 -4 -4 -5 -18 -1 -19 4 -29 1 -33 -9 -3 -8 -12 -12 -20 -9
-8 3 -19 -3 -25 -15 -9 -15 -16 -18 -32 -13 -28 11 -116 -1 -132 -17 -19 -19
18 -41 72 -42 57 -1 104 -5 111 -9 16 -9 236 -22 415 -24 l80 -1 3 43 c3 34 8
45 26 52 13 5 25 14 28 22 9 26 1 142 -10 146 -7 2 -12 9 -12 16 0 23 -38 49
-61 43 -12 -3 -34 0 -49 8 -38 20 -257 16 -270 -5 -5 -8 -5 -21 1 -32 7 -13 5
-20 -10 -28 -23 -12 -38 3 -24 23 19 26 2 87 -24 87 -10 0 -45 10 -78 21 -62
21 -143 37 -230 45 -27 3 -63 9 -79 14 -16 6 -47 10 -68 10 -22 0 -47 4 -56 9
-34 17 -90 20 -103 5z m306 -134 c10 -17 -24 -23 -58 -11 -18 6 -22 9 -11 7
12 -2 28 0 35 5 18 11 26 11 34 -1z m285 1 c0 -6 -10 -17 -22 -26 -13 -8 -22
-18 -20 -20 3 -6 -8 -5 -33 5 -18 7 -18 8 7 15 15 4 32 13 39 21 13 16 29 19
29 5z m-90 -61 c0 -5 -4 -10 -10 -10 -5 0 -10 5 -10 10 0 6 5 10 10 10 6 0 10
-4 10 -10z m300 -10 l25 -20 -25 0 c-14 0 -36 -7 -50 -16 -24 -14 -22 -14 32
-8 66 7 138 -3 138 -20 0 -6 -21 -17 -47 -24 -27 -6 -57 -14 -68 -17 -11 -3
-39 -7 -61 -9 -23 -2 -46 -6 -52 -10 -13 -8 -42 3 -42 15 0 5 9 9 21 9 17 0
19 4 13 23 -4 12 -11 25 -17 28 -14 10 1 29 23 29 10 0 23 6 27 14 7 11 23 19
53 25 3 0 16 -8 30 -19z m-380 -42 c32 -23 38 -38 18 -38 -17 1 -58 35 -58 49
0 16 7 14 40 -11z m189 -2 c16 -19 -34 -36 -88 -29 -48 7 -45 23 4 23 19 0 37
5 40 10 9 14 31 12 44 -4z m-307 -18 c-9 -9 -15 -9 -24 0 -9 9 -7 12 12 12 19
0 21 -3 12 -12z m216 -45 c-10 -2 -28 -2 -40 0 -13 2 -5 4 17 4 22 1 32 -1 23
-4z"/>
<path d="M8148 5563 c-21 -5 -24 -23 -4 -23 8 0 16 -6 19 -12 2 -7 4 -1 3 14
0 16 -1 27 -1 27 0 -1 -8 -3 -17 -6z"/>
<path d="M8363 5563 c9 -2 23 -2 30 0 6 3 -1 5 -18 5 -16 0 -22 -2 -12 -5z"/>
<path d="M8370 5525 c0 -8 7 -15 15 -15 8 0 15 7 15 15 0 8 -7 15 -15 15 -8 0
-15 -7 -15 -15z"/>
<path d="M8416 5452 c-3 -6 -1 -14 5 -17 15 -10 25 3 12 16 -7 7 -13 7 -17 1z"/>
<path d="M8363 5436 c-13 -15 -6 -30 19 -39 10 -3 18 0 20 11 10 38 -15 55
-39 28z"/>
<path d="M8462 5435 c-11 -12 -10 -15 3 -15 8 0 15 7 15 15 0 18 -2 18 -18 0z"/>
<path d="M1847 5433 c-11 -10 -8 -20 8 -27 9 -3 19 3 25 14 9 17 7 20 -8 20
-10 0 -22 -3 -25 -7z"/>
<path d="M7965 5381 c-7 -13 73 -51 92 -44 20 8 3 31 -25 36 -15 2 -34 7 -43
11 -10 4 -20 2 -24 -3z"/>
<path d="M8115 5382 c-12 -13 -2 -18 37 -19 28 -2 38 1 31 8 -12 12 -59 19
-68 11z"/>
<path d="M8235 5370 c-3 -5 1 -10 10 -10 9 0 13 5 10 10 -3 6 -8 10 -10 10 -2
0 -7 -4 -10 -10z"/>
<path d="M1606 5353 c-4 -5 -46 -12 -94 -18 -70 -8 -87 -13 -90 -27 -3 -13 3
-18 22 -18 16 0 27 -7 31 -21 5 -14 13 -19 25 -16 9 2 25 0 34 -5 9 -5 49 -11
89 -13 130 -8 190 -16 220 -31 15 -9 34 -13 40 -10 9 3 9 5 0 5 -6 1 -9 9 -6
19 3 14 -4 22 -26 31 -16 7 -35 10 -40 6 -20 -12 -49 4 -44 24 5 18 -20 51
-38 51 -5 0 -12 -8 -16 -17 -11 -31 -42 -55 -66 -50 -21 4 -21 4 2 6 19 1 21
4 12 15 -6 8 -11 18 -9 22 8 32 -26 67 -46 47z"/>
<path d="M7434 5273 c9 -10 -47 -35 -67 -29 -13 3 -17 0 -15 -12 2 -10 16 -17
40 -20 33 -3 37 -1 31 14 -5 13 -3 16 10 11 11 -4 14 -2 11 8 -3 7 2 15 13 17
15 3 14 5 -5 10 -13 4 -21 4 -18 1z"/>
<path d="M7520 5232 c0 -4 -10 -12 -22 -17 -39 -17 -29 -40 17 -40 27 0 39 -4
38 -12 -4 -18 14 -16 21 2 3 8 16 15 28 16 22 1 22 1 -2 9 -22 7 -21 8 13 9
44 1 48 26 4 26 -14 1 -29 4 -33 8 -10 9 -64 9 -64 -1z"/>
<path d="M3497 5223 c-13 -12 13 -30 38 -25 31 5 32 18 3 26 -29 7 -33 7 -41
-1z"/>
<path d="M3985 5201 c-3 -6 -52 -10 -109 -9 -57 0 -113 -5 -124 -11 -11 -6
-53 -13 -94 -16 -125 -10 -323 -37 -332 -46 -6 -5 -19 -9 -30 -9 -11 0 -46 -7
-78 -16 -47 -14 -61 -23 -78 -52 -12 -19 -20 -35 -18 -36 68 -39 187 -86 214
-86 39 0 27 17 -17 24 -23 4 -39 9 -37 12 3 2 25 0 49 -7 56 -14 109 -18 109
-8 0 4 -10 10 -22 12 -13 3 3 2 35 -1 38 -3 61 -1 66 6 6 10 78 20 261 39 59
5 89 21 83 42 -3 14 6 16 71 16 54 0 76 -4 76 -12 0 -7 5 -13 10 -13 16 0 13
149 -4 166 -17 16 -23 17 -31 5z"/>
<path d="M8786 5195 c-3 -8 -1 -15 4 -15 6 0 10 7 10 15 0 8 -2 15 -4 15 -2 0
-6 -7 -10 -15z"/>
<path d="M8831 5191 c-10 -6 -10 -10 -1 -16 13 -8 24 -1 19 14 -3 6 -10 7 -18
2z"/>
<path d="M1975 5180 c-3 -5 1 -10 9 -10 9 0 16 5 16 10 0 6 -4 10 -9 10 -6 0
-13 -4 -16 -10z"/>
<path d="M7745 5160 c3 -5 8 -10 11 -10 2 0 4 5 4 10 0 6 -5 10 -11 10 -5 0
-7 -4 -4 -10z"/>
<path d="M7666 5145 c-3 -9 0 -15 9 -15 8 0 15 -4 15 -10 0 -16 -27 -12 -34 6
-8 22 -24 9 -21 -18 1 -13 3 -31 4 -40 1 -25 27 -23 34 2 5 20 27 28 27 10 0
-5 -4 -10 -10 -10 -20 0 -9 -21 16 -30 19 -8 29 -6 40 5 20 19 41 20 25 1 -9
-11 -2 -13 41 -11 29 1 64 7 77 14 14 8 26 9 30 4 3 -6 13 -13 21 -16 10 -3 7
-6 -8 -6 -13 -1 -21 -5 -18 -10 4 -5 25 -8 49 -6 23 2 58 4 77 5 39 0 69 15
57 27 -4 4 -17 2 -28 -5 -19 -12 -20 -11 -19 15 3 47 0 60 -10 36 -5 -12 -17
-22 -27 -22 -10 0 -30 -3 -45 -7 -27 -6 -39 8 -18 21 22 13 9 41 -22 52 -29 9
-49 10 -105 4 -7 0 -13 -7 -13 -15 0 -18 -27 -39 -40 -31 -7 4 -7 12 0 25 10
18 8 19 -20 14 -22 -5 -31 -2 -36 10 -8 20 -40 21 -48 1z m258 -40 c-7 -17
-20 -20 -29 -6 -3 5 3 12 12 14 10 3 19 5 20 6 1 0 0 -6 -3 -14z"/>
<path d="M7275 5140 c-3 -6 1 -7 9 -4 18 7 21 14 7 14 -6 0 -13 -4 -16 -10z"/>
<path d="M4140 5130 c0 -5 5 -10 10 -10 6 0 10 5 10 10 0 6 -4 10 -10 10 -5 0
-10 -4 -10 -10z"/>
<path d="M7330 5130 c-8 -5 -11 -12 -7 -16 4 -4 15 0 24 9 18 18 8 23 -17 7z"/>
<path d="M4390 5110 c-8 -5 -10 -10 -5 -10 6 0 17 5 25 10 8 5 11 10 5 10 -5
0 -17 -5 -25 -10z"/>
<path d="M8000 5105 c0 -8 2 -15 4 -15 2 0 6 7 10 15 3 8 1 15 -4 15 -6 0 -10
-7 -10 -15z"/>
<path d="M7390 5100 c0 -5 5 -10 10 -10 6 0 10 5 10 10 0 6 -4 10 -10 10 -5 0
-10 -4 -10 -10z"/>
<path d="M1797 5070 c-89 -11 -102 -25 -16 -16 65 6 68 6 95 -24 28 -29 63
-40 65 -20 6 62 5 65 -36 66 -22 1 -71 -2 -108 -6z"/>
<path d="M7548 5066 c-15 -11 -12 -13 26 -12 34 1 42 4 34 14 -13 15 -38 15
-60 -2z"/>
<path d="M9070 5070 c0 -5 10 -10 23 -10 18 0 19 2 7 10 -19 13 -30 13 -30 0z"/>
<path d="M7505 5061 c-3 -5 -1 -12 5 -16 5 -3 10 1 10 9 0 18 -6 21 -15 7z"/>
<path d="M8937 5052 c-15 -16 -15 -20 4 -51 11 -18 18 -35 16 -37 -2 -2 -27
-4 -55 -5 -29 -1 -52 -3 -52 -4 0 -1 13 -11 28 -22 l29 -21 34 29 c19 16 39
29 45 29 13 0 74 -65 74 -80 0 -5 4 -10 9 -10 5 0 11 -8 13 -18 6 -20 77 -46
102 -36 9 4 16 1 16 -6 0 -9 10 -10 34 -6 27 5 37 3 45 -11 8 -14 12 -15 22
-6 10 10 17 9 35 -8 17 -16 42 -22 110 -29 93 -9 124 -16 124 -31 0 -4 10 -13
21 -20 18 -9 27 -7 50 10 15 12 32 21 37 21 9 0 16 48 28 172 4 36 1 49 -12
56 -11 6 -13 11 -5 16 6 4 11 17 11 29 0 18 -2 19 -10 7 -7 -12 -10 -12 -10
-1 0 8 -6 11 -16 7 -8 -3 -12 -2 -9 4 8 12 -63 31 -92 24 -13 -4 -23 -11 -23
-16 0 -6 -14 -8 -35 -4 -31 6 -36 4 -45 -19 -5 -14 -17 -25 -27 -25 -10 0 -28
-3 -40 -6 -14 -4 -23 -2 -23 5 0 6 8 11 18 11 10 0 27 7 38 15 29 22 2 35 -76
34 -50 0 -60 -2 -42 -10 28 -11 20 -29 -12 -29 -30 0 -76 22 -76 38 0 6 -4 12
-10 12 -5 0 -10 -6 -10 -12 -1 -8 -6 -5 -15 6 -15 19 -35 14 -35 -10 0 -18
-61 -19 -78 -2 -9 9 -12 7 -12 -10 0 -12 -4 -22 -10 -22 -5 0 -10 8 -10 18 0
9 -5 24 -10 32 -9 13 -13 11 -29 -9 l-18 -24 -15 22 c-14 20 -16 20 -31 3z
m667 -20 c2 -4 -7 -9 -20 -10 -15 -1 -22 2 -19 8 7 12 32 13 39 2z m-439 -72
c3 -5 1 -10 -4 -10 -6 0 -11 5 -11 10 0 6 2 10 4 10 3 0 8 -4 11 -10z m-55
-25 c17 -20 -9 -21 -36 0 -19 14 -19 14 2 15 12 0 27 -7 34 -15z m105 -5 c7 0
19 -7 26 -17 13 -15 11 -15 -18 1 -18 9 -33 22 -32 29 0 9 2 9 6 0 2 -7 10
-13 18 -13z"/>
<path d="M1633 5053 c9 -2 25 -2 35 0 9 3 1 5 -18 5 -19 0 -27 -2 -17 -5z"/>
<path d="M2970 5053 c-8 -3 -26 -10 -40 -16 l-25 -10 25 -7 c43 -13 110 -11
110 3 0 30 -33 44 -70 30z"/>
<path d="M8873 5053 c-18 -7 -16 -23 2 -23 8 0 15 7 15 15 0 8 -1 15 -2 14 -2
0 -9 -3 -15 -6z"/>
<path d="M8820 4998 c0 -8 81 -27 93 -21 4 2 7 11 7 19 0 11 -12 13 -50 12
-27 -1 -50 -6 -50 -10z"/>
<path d="M4083 4936 c0 -14 3 -23 8 -20 5 2 18 -7 31 -21 12 -14 27 -25 34
-25 6 0 17 -6 23 -14 10 -11 8 -16 -8 -21 -22 -7 -25 -23 -15 -62 5 -18 14
-23 40 -23 18 0 35 -4 38 -9 8 -13 50 -21 151 -27 50 -4 92 -10 95 -14 3 -4
24 -17 47 -29 37 -18 49 -20 89 -11 25 6 55 8 65 5 12 -4 21 -1 25 10 8 20
-22 88 -48 112 -11 10 -26 30 -34 45 -8 16 -21 28 -29 28 -10 0 -12 6 -8 18 6
14 4 15 -9 4 -11 -9 -17 -9 -20 -2 -2 8 -11 8 -29 2 -37 -15 -188 4 -219 26
-52 38 -98 48 -180 41 -8 -1 -22 2 -31 5 -13 6 -16 1 -16 -18z m122 -116 c-3
-5 -10 -10 -16 -10 -5 0 -9 5 -9 10 0 6 7 10 16 10 8 0 12 -4 9 -10z"/>
<path d="M788 4943 c6 -2 18 -2 25 0 6 3 1 5 -13 5 -14 0 -19 -2 -12 -5z"/>
<path d="M864 4938 c4 -10 8 -26 11 -35 4 -12 8 -14 17 -5 9 9 7 17 -10 35
-18 17 -22 18 -18 5z"/>
<path d="M1739 4920 l-24 -19 33 -1 c21 0 32 5 32 14 0 25 -17 27 -41 6z"/>
<path d="M8950 4915 c0 -8 3 -14 8 -13 4 0 15 -2 24 -6 9 -4 25 -6 35 -3 14 3
9 8 -19 20 -46 21 -48 21 -48 2z"/>
<path d="M3330 4780 c-23 -5 -23 -6 14 -28 47 -28 46 -54 -4 -57 -47 -3 -117
14 -131 31 -15 19 -49 18 -49 -1 0 -8 0 -18 0 -22 0 -4 17 -8 37 -10 79 -4
120 -14 177 -43 62 -31 114 -38 162 -20 42 16 29 22 -89 37 -52 6 -60 27 -11
29 31 1 88 27 100 45 4 8 -9 10 -42 8 -78 -4 -103 0 -122 19 -12 12 -26 16
-42 12z"/>
<path d="M4101 4734 c0 -11 3 -14 6 -6 3 7 2 16 -1 19 -3 4 -6 -2 -5 -13z"/>
<path d="M3566 4733 c-11 -11 -6 -21 14 -26 13 -3 18 -1 13 5 -3 6 -1 8 5 5
12 -8 4 -47 -9 -47 -5 0 -9 -7 -9 -15 0 -18 44 -16 149 5 57 12 62 15 46 26
-27 20 -11 28 26 15 38 -13 79 -14 79 -3 0 5 -8 16 -18 25 -16 14 -26 15 -78
6 -32 -6 -68 -10 -79 -10 -11 1 -40 3 -65 4 -25 2 -50 6 -56 10 -6 3 -14 4
-18 0z"/>
<path d="M4150 4676 c0 -9 8 -12 26 -8 19 3 22 7 12 13 -20 13 -38 11 -38 -5z"/>
<path d="M4340 4650 c0 -5 5 -10 10 -10 6 0 10 5 10 10 0 6 -4 10 -10 10 -5 0
-10 -4 -10 -10z"/>
<path d="M3655 4240 c-16 -7 -17 -9 -3 -9 9 -1 20 4 23 9 7 11 7 11 -20 0z"/>
<path d="M3583 4220 c-13 -5 -23 -12 -23 -15 0 -9 16 -5 36 10 22 16 19 18
-13 5z"/>
<path d="M3455 4180 l-30 -8 27 -1 c15 0 30 4 33 9 3 6 5 9 3 9 -2 -1 -16 -5
-33 -9z"/>
<path d="M3380 4160 c-8 -5 -10 -10 -5 -10 6 0 17 5 25 10 8 5 11 10 5 10 -5
0 -17 -5 -25 -10z"/>
<path d="M3335 4140 c3 -5 8 -10 11 -10 2 0 4 5 4 10 0 6 -5 10 -11 10 -5 0
-7 -4 -4 -10z"/>
<path d="M3220 4110 c-13 -9 -13 -10 0 -10 8 0 22 5 30 10 13 9 13 10 0 10 -8
0 -22 -5 -30 -10z"/>
<path d="M9980 1446 c0 -2 7 -7 16 -10 8 -3 12 -2 9 4 -6 10 -25 14 -25 6z"/>
</g>
</svg>
